<svg width="38" height="30" viewBox="0 0 38 30" fill="none" xmlns="http://www.w3.org/2000/svg">
<path d="M35.5515 2.43797C38.8162 5.6886 38.8162 10.9588 35.5515 14.2094L23.729 25.9809L21.3645 23.6266L33.1678 11.8741L33.187 11.8552C35.1458 9.90471 35.1458 6.74248 33.187 4.79222C31.2282 2.84176 28.0523 2.84176 26.0935 4.79222L14.2711 16.5637L11.9066 14.2094L23.729 2.43797C26.9938 -0.812658 32.2868 -0.812658 35.5515 2.43797Z" fill="#0070CF"/>
<path d="M11.9065 4.79222L14.2711 2.43797C11.0064 -0.812658 5.71324 -0.812658 2.44853 2.43797C-0.816177 5.6886 -0.816177 10.9588 2.44853 14.2094L14.271 25.9809L16.6355 23.6266L4.81308 11.8552C2.85427 9.90471 2.85427 6.74268 4.81308 4.79222C6.77188 2.84196 9.94771 2.84196 11.9065 4.79222Z" fill="#0070CF"/>
<path d="M30.8225 9.50089C30.1696 10.151 29.1109 10.151 28.458 9.50089C27.8051 8.85077 27.8051 7.79672 28.458 7.14659C29.1109 6.49647 30.1696 6.49647 30.8225 7.14659C31.4754 7.79672 31.4754 8.85077 30.8225 9.50089Z" fill="#0070CF"/>
<path d="M28.458 7.14659L30.8225 9.50089L16.6355 23.6266L14.2711 21.2724L28.458 7.14659Z" fill="#0070CF"/>
<path d="M9.54204 7.14655C10.195 7.79667 10.195 8.85072 9.54204 9.50084C8.8891 10.151 7.83048 10.151 7.17755 9.50084C6.52461 8.85072 6.52461 7.79667 7.17755 7.14655C7.83048 6.49643 8.8891 6.49643 9.54204 7.14655Z" fill="#0070CF"/>
<path d="M13.0889 5.96937C12.4359 5.31925 12.4359 4.26519 13.0889 3.61507C13.7418 2.96495 14.8004 2.96495 15.4534 3.61507C16.1063 4.26519 16.1063 5.31925 15.4534 5.96937C14.8004 6.61949 13.7418 6.61949 13.0889 5.96937Z" fill="#0070CF"/>
<path d="M15.4534 3.61507L13.0889 5.96937L11.9065 4.79222L14.2711 2.43797L15.4534 3.61507Z" fill="#0070CF"/>
<path d="M17.8178 27.1581C18.4707 26.508 19.5294 26.508 20.1823 27.1581C20.8352 27.8082 20.8352 28.8623 20.1823 29.5124C19.5294 30.1625 18.4707 30.1625 17.8178 29.5124C17.1649 28.8623 17.1649 27.8082 17.8178 27.1581Z" fill="#0070CF"/>
<path d="M20.1823 29.5124L17.8178 27.1581L21.3645 23.6266L23.729 25.9809L20.1823 29.5124Z" fill="#0070CF"/>
<path d="M11.9066 14.2094L14.271 11.8552L9.54204 7.14655C10.195 7.79667 10.195 8.85072 9.54204 9.50084C8.8891 10.151 7.83048 10.151 7.17755 9.50084L11.9066 14.2094Z" fill="#0070CF"/>
</svg>
