<svg width="170" height="175" viewBox="0 0 170 175" fill="none" xmlns="http://www.w3.org/2000/svg">
<path d="M15.3671 42.5257L1.93677 32.0116C1.07419 31.3362 0.922378 30.0897 1.59775 29.2267L23.8825 0.76087C24.5579 -0.101709 25.8044 -0.253525 26.6673 0.421851L40.0976 10.936C40.9602 11.6114 41.112 12.8579 40.4366 13.7205L18.1515 42.1863C17.4765 43.0493 16.2296 43.2011 15.3671 42.5257Z" fill="#F5F5F5"/>
<path d="M15.8214 38.7079C15.8005 38.7345 13.6203 37.0623 10.9519 34.9733C8.28269 32.8837 6.13633 31.1688 6.15726 31.1422C6.17818 31.1155 8.35803 32.7874 11.0272 34.8771C13.6956 36.966 15.8423 38.6813 15.8214 38.7079Z" fill="#E0E0E0"/>
<path d="M36.021 11.7921C36.0001 11.8188 33.8198 10.1465 31.1514 8.05758C28.4823 5.96791 26.3359 4.25302 26.3568 4.22639C26.3778 4.19975 28.5576 5.87164 31.2268 7.96131C33.8952 10.0502 36.0419 11.7655 36.021 11.7921Z" fill="#E0E0E0"/>
<path d="M10.7175 34.6301C10.6909 34.6091 15.3036 28.6727 21.0194 21.3721C26.7367 14.0689 31.3916 8.1675 31.4183 8.18804C31.4449 8.20897 26.8329 14.1443 21.1156 21.4471C15.3999 28.748 10.7442 34.651 10.7175 34.6301Z" fill="#E0E0E0"/>
<path d="M23.4679 10.0087L24.6809 8.38062L26.2162 9.52438C26.6659 9.85921 26.7588 10.4954 26.4239 10.9448C26.0891 11.3941 25.4529 11.4873 25.0036 11.1521L23.4679 10.0087Z" fill="#EBEBEB"/>
<path d="M24.954 8.58464L23.741 10.2128L22.2057 9.06901C21.756 8.73417 21.6632 8.09799 21.9984 7.64862C22.3332 7.19926 22.9694 7.10604 23.4188 7.44126L24.954 8.58464Z" fill="#E0E0E0"/>
<path d="M31.3273 16.0115L32.5403 14.3838L34.0756 15.5276C34.5253 15.8624 34.6182 16.4986 34.2829 16.9479C33.9481 17.3977 33.3119 17.4905 32.8626 17.1557L31.3273 16.0115Z" fill="#EBEBEB"/>
<path d="M32.8135 14.5873L31.6005 16.2155L30.0652 15.0717C29.6155 14.7369 29.5226 14.1007 29.8574 13.6513C30.1923 13.2019 30.8285 13.1087 31.2778 13.4439L32.8135 14.5873Z" fill="#E0E0E0"/>
<path d="M20.0605 14.497L21.2736 12.8689L22.8089 14.0127C23.2582 14.3475 23.3514 14.9837 23.0162 15.433C22.6814 15.8824 22.0452 15.9756 21.5958 15.6408L20.0605 14.497Z" fill="#EBEBEB"/>
<path d="M21.5463 13.0728L20.3333 14.7009L18.798 13.5572C18.3487 13.2223 18.2555 12.5861 18.5907 12.1368C18.9255 11.687 19.5617 11.5942 20.0111 11.9294L21.5463 13.0728Z" fill="#E0E0E0"/>
<path d="M28.0999 20.634L29.3129 19.0059L30.8482 20.1496C31.2979 20.4845 31.3907 21.1206 31.0555 21.57C30.7207 22.0194 30.0845 22.1126 29.6351 21.7774L28.0999 20.634Z" fill="#EBEBEB"/>
<path d="M29.5858 19.2095L28.3727 20.8372L26.8375 19.6935C26.3877 19.3586 26.2949 18.7224 26.6301 18.2731C26.9649 17.8233 27.6011 17.7305 28.0505 18.0653L29.5858 19.2095Z" fill="#E0E0E0"/>
<path d="M16.6527 18.9853L17.8657 17.3572L19.401 18.5009C19.8504 18.8358 19.9436 19.472 19.6084 19.9213C19.2735 20.3707 18.6374 20.4639 18.188 20.1291L16.6527 18.9853Z" fill="#EBEBEB"/>
<path d="M18.139 17.5612L16.926 19.1893L15.3907 18.0456C14.9413 17.7107 14.8481 17.0745 15.1833 16.6252C15.5182 16.1758 16.1543 16.0826 16.6037 16.4178L18.139 17.5612Z" fill="#E0E0E0"/>
<path d="M24.8728 25.2563L26.0858 23.6282L27.6211 24.7719C28.0705 25.1068 28.1637 25.7426 27.8285 26.1923C27.4936 26.6421 26.8575 26.7349 26.4081 26.3997L24.8728 25.2563Z" fill="#EBEBEB"/>
<path d="M26.3585 23.832L25.1455 25.4602L23.6102 24.3164C23.1604 23.9816 23.0676 23.3454 23.4028 22.896C23.7376 22.4467 24.3738 22.3534 24.8232 22.6883L26.3585 23.832Z" fill="#E0E0E0"/>
<path d="M12.7882 23.5957L14.0012 21.9675L15.5365 23.1113C15.9859 23.4461 16.0791 24.0823 15.7439 24.5317C15.409 24.981 14.7729 25.0743 14.3235 24.739L12.7882 23.5957Z" fill="#EBEBEB"/>
<path d="M14.2744 22.1711L13.0614 23.7993L11.5261 22.6555C11.0767 22.3207 10.9835 21.6845 11.3187 21.2351C11.6535 20.7858 12.2897 20.6925 12.7391 21.0274L14.2744 22.1711Z" fill="#E0E0E0"/>
<path d="M21.0773 29.7713L22.2903 28.1436L23.8256 29.2873C24.2749 29.6222 24.3682 30.2583 24.0333 30.7077C23.6985 31.1574 23.0623 31.2503 22.6129 30.9151L21.0773 29.7713Z" fill="#EBEBEB"/>
<path d="M22.5634 28.3471L21.3504 29.9748L19.8151 28.8311C19.3653 28.4962 19.2725 27.8601 19.6073 27.4107C19.9422 26.961 20.5783 26.8681 21.0277 27.2033L22.5634 28.3471Z" fill="#E0E0E0"/>
<path d="M9.37415 28.7888L10.5872 27.1606L12.1224 28.3044C12.5718 28.6392 12.665 29.2754 12.3302 29.7248C11.9954 30.1742 11.3592 30.2674 10.9098 29.9325L9.37415 28.7888Z" fill="#EBEBEB"/>
<path d="M10.8606 27.3643L9.64754 28.9924L8.11225 27.8487C7.66289 27.5138 7.56966 26.8776 7.90488 26.4283C8.23971 25.9785 8.8759 25.8857 9.32526 26.2209L10.8606 27.3643Z" fill="#E0E0E0"/>
<path d="M17.2607 34.6643L18.4738 33.0361L20.009 34.1799C20.4584 34.5147 20.5516 35.1509 20.2164 35.6003C19.8816 36.0496 19.2454 36.1429 18.796 35.8076L17.2607 34.6643Z" fill="#EBEBEB"/>
<path d="M18.747 33.2402L17.534 34.8683L15.9987 33.7245C15.5494 33.3897 15.4561 32.7535 15.7914 32.3041C16.1262 31.8548 16.7624 31.7616 17.2117 32.0968L18.747 33.2402Z" fill="#E0E0E0"/>
<path d="M168.655 106.401L144.214 114.727C143.177 115.08 142.05 114.526 141.697 113.489L124.646 63.4379C124.293 62.4007 124.847 61.2737 125.884 60.9206L150.325 52.5942C151.362 52.2411 152.489 52.7951 152.843 53.8324L169.894 103.884C170.247 104.92 169.693 106.047 168.655 106.401Z" fill="#EBEBEB"/>
<path d="M137.057 67.8479C137.445 68.986 136.836 70.223 135.698 70.6107C134.56 70.9984 133.323 70.39 132.936 69.252C132.548 68.1139 133.156 66.8769 134.294 66.4892C135.433 66.1015 136.669 66.7099 137.057 67.8479Z" fill="#FAFAFA"/>
<path d="M149.046 63.7637C149.433 64.9018 148.825 66.1387 147.687 66.5261C146.549 66.9138 145.312 66.3054 144.924 65.1673C144.537 64.0293 145.145 62.7923 146.283 62.405C147.421 62.0172 148.658 62.6257 149.046 63.7637Z" fill="#FAFAFA"/>
<path d="M140.854 78.994C141.242 80.132 140.633 81.369 139.495 81.7567C138.357 82.1445 137.12 81.536 136.733 80.398C136.345 79.2599 136.953 78.023 138.091 77.6352C139.229 77.2475 140.466 77.8555 140.854 78.994Z" fill="#FAFAFA"/>
<path d="M152.843 74.9095C153.231 76.0476 152.622 77.2845 151.484 77.6719C150.346 78.0596 149.109 77.4512 148.722 76.3131C148.334 75.1751 148.943 73.9381 150.081 73.5504C151.218 73.1634 152.455 73.7715 152.843 74.9095Z" fill="#FAFAFA"/>
<path d="M144.651 90.1399C145.039 91.2779 144.43 92.5149 143.292 92.9023C142.154 93.29 140.917 92.6816 140.529 91.5435C140.142 90.4055 140.75 89.1685 141.888 88.7808C143.026 88.3934 144.263 89.0018 144.651 90.1399Z" fill="#FAFAFA"/>
<path d="M156.64 86.0555C157.028 87.1936 156.419 88.4305 155.281 88.8183C154.143 89.206 152.906 88.5976 152.518 87.4595C152.131 86.3215 152.739 85.0845 153.877 84.6971C155.016 84.309 156.252 84.9175 156.64 86.0555Z" fill="#FAFAFA"/>
<path d="M148.448 101.286C148.836 102.424 148.228 103.661 147.09 104.049C145.952 104.436 144.715 103.828 144.327 102.69C143.94 101.552 144.548 100.315 145.686 99.9272C146.824 99.5395 148.061 100.148 148.448 101.286Z" fill="#FAFAFA"/>
<path d="M160.437 97.2013C160.825 98.3393 160.217 99.5763 159.079 99.9636C157.941 100.351 156.704 99.743 156.316 98.6049C155.929 97.4669 156.537 96.2299 157.675 95.8425C158.813 95.4552 160.05 96.0636 160.437 97.2013Z" fill="#FAFAFA"/>
<path d="M135.889 66.6789C135.932 66.7006 135.551 67.5362 135.039 68.5452C134.527 69.5547 134.078 70.3548 134.035 70.3332C133.992 70.3115 134.373 69.4763 134.885 68.4668C135.397 67.4578 135.847 66.6572 135.889 66.6789Z" fill="#E0E0E0"/>
<path d="M147.63 62.5832C147.672 62.6049 147.292 63.4404 146.78 64.4495C146.267 65.459 145.818 66.2591 145.775 66.2378C145.733 66.2161 146.113 65.3806 146.625 64.3715C147.137 63.3621 147.587 62.5615 147.63 62.5832Z" fill="#E0E0E0"/>
<path d="M139.797 77.8255C139.841 77.8445 139.504 78.722 139.044 79.7854C138.585 80.8493 138.177 81.6959 138.133 81.6769C138.089 81.6578 138.426 80.7804 138.886 79.7169C139.345 78.6531 139.753 77.8065 139.797 77.8255Z" fill="#E0E0E0"/>
<path d="M151.641 73.7154C151.686 73.7329 151.395 74.5878 150.992 75.6247C150.588 76.6623 150.225 77.4891 150.181 77.4716C150.136 77.4545 150.427 76.5995 150.83 75.5619C151.234 74.525 151.597 73.6979 151.641 73.7154Z" fill="#E0E0E0"/>
<path d="M143.236 88.9244C143.28 88.9434 142.972 89.7474 142.548 90.7196C142.124 91.6921 141.745 92.4649 141.7 92.4459C141.657 92.4269 141.965 91.6229 142.389 90.6503C142.813 89.6782 143.193 88.9054 143.236 88.9244Z" fill="#E0E0E0"/>
<path d="M155.517 85.0286C155.559 85.051 155.186 85.8405 154.683 86.7922C154.18 87.7441 153.738 88.4975 153.695 88.4751C153.653 88.4526 154.026 87.6631 154.53 86.7111C155.033 85.7595 155.475 85.0061 155.517 85.0286Z" fill="#E0E0E0"/>
<path d="M147.359 100.227C147.401 100.25 146.998 101.07 146.458 102.058C145.918 103.046 145.446 103.828 145.404 103.805C145.362 103.783 145.766 102.963 146.306 101.975C146.846 100.987 147.318 100.204 147.359 100.227Z" fill="#E0E0E0"/>
<path d="M159.322 95.7845C159.366 95.8027 159.026 96.7368 158.563 97.8711C158.099 99.0057 157.688 99.9105 157.644 99.8926C157.599 99.8748 157.939 98.9403 158.403 97.8056C158.866 96.6714 159.278 95.7662 159.322 95.7845Z" fill="#E0E0E0"/>
<path d="M163.694 103.172C163.71 103.217 160.037 104.509 155.492 106.057C150.946 107.606 147.249 108.825 147.233 108.779C147.218 108.734 150.89 107.442 155.437 105.894C159.981 104.345 163.679 103.126 163.694 103.172Z" fill="#E0E0E0"/>
<path d="M147.401 58.3606C147.417 58.4059 143.744 59.6977 139.199 61.2463C134.652 62.7949 130.955 64.0136 130.94 63.9683C130.925 63.923 134.597 62.6313 139.143 61.0826C143.688 59.534 147.386 58.3153 147.401 58.3606Z" fill="#E0E0E0"/>
<path d="M139.405 63.3984C139.382 63.406 139.36 63.4071 139.342 63.4029C139.333 63.4007 139.325 63.3972 139.318 63.3923L139.311 63.3843C139.309 63.3824 139.307 63.3797 139.307 63.3797L139.306 63.3771L139.306 63.3759L139.306 63.3752L139.469 63.3192V63.3188C139.479 63.347 139.45 63.3832 139.405 63.3984C139.36 63.414 139.315 63.4029 139.305 63.374L139.469 63.3188V63.3192L139.47 63.32L139.47 63.3215L139.471 63.3242C139.471 63.3242 139.471 63.3272 139.471 63.3299L139.47 63.3413C139.468 63.3489 139.463 63.3565 139.458 63.3637C139.446 63.3778 139.428 63.3908 139.405 63.3984Z" fill="#E0E0E0"/>
<path d="M154.904 106.07C154.858 106.085 151.387 96.0146 147.151 83.5797C142.913 71.1402 139.515 61.0469 139.561 61.0313C139.606 61.016 143.077 71.0843 147.314 83.5238C151.551 95.959 154.949 106.054 154.904 106.07Z" fill="#E0E0E0"/>
<path d="M106.165 157.204L105.177 172.033C105.089 173.35 103.951 174.346 102.634 174.259L64.3301 171.707L65.6359 152.109L103.939 154.661C105.257 154.749 106.253 155.887 106.165 157.204Z" fill="#F5F5F5"/>
<path d="M76.3148 160.133L75.4939 172.451L93.1035 173.624L93.9244 161.307L76.3148 160.133Z" fill="#E0E0E0"/>
<path d="M68.8735 151.42L67.4097 173.383C67.3804 173.823 67.0007 174.155 66.5612 174.126L61.3496 173.778C60.9101 173.749 60.578 173.369 60.6073 172.93L62.0706 150.966C62.0999 150.527 62.4797 150.195 62.9191 150.224L68.1308 150.571C68.5702 150.601 68.9028 150.98 68.8735 151.42Z" fill="#EBEBEB"/>
<path d="M67.482 172.301C67.4782 172.358 65.9521 172.303 64.074 172.178C62.1951 172.053 60.6754 171.905 60.6792 171.847C60.683 171.79 62.2088 171.844 64.0877 171.97C65.9662 172.095 67.4859 172.243 67.482 172.301Z" fill="#E0E0E0"/>
<path d="M67.6086 170.4C67.6048 170.458 66.0787 170.403 64.2006 170.278C62.3217 170.152 60.802 170.004 60.8058 169.947C60.8096 169.889 62.3354 169.944 64.2143 170.069C66.0928 170.195 67.6124 170.343 67.6086 170.4Z" fill="#E0E0E0"/>
<path d="M67.7353 168.499C67.7315 168.557 66.2054 168.502 64.3273 168.377C62.4484 168.252 60.9287 168.104 60.9325 168.046C60.9363 167.989 62.4621 168.044 64.341 168.169C66.2191 168.294 67.7391 168.442 67.7353 168.499Z" fill="#E0E0E0"/>
<path d="M67.8621 166.599C67.8582 166.656 66.3321 166.601 64.454 166.476C62.5751 166.351 61.0554 166.203 61.0592 166.146C61.063 166.088 62.5888 166.143 64.4677 166.268C66.3458 166.393 67.8659 166.541 67.8621 166.599Z" fill="#E0E0E0"/>
<path d="M67.9884 164.698C67.9846 164.756 66.4584 164.701 64.5803 164.576C62.7014 164.451 61.1817 164.303 61.1859 164.245C61.1897 164.188 62.7155 164.243 64.5944 164.368C66.4725 164.493 67.9926 164.641 67.9884 164.698Z" fill="#E0E0E0"/>
<path d="M68.1151 162.798C68.1113 162.855 66.5851 162.8 64.707 162.675C62.8282 162.55 61.3085 162.402 61.3123 162.345C61.3161 162.287 62.8418 162.342 64.7207 162.467C66.5992 162.592 68.1189 162.74 68.1151 162.798Z" fill="#E0E0E0"/>
<path d="M68.2418 160.897C68.238 160.955 66.7118 160.9 64.8337 160.775C62.9548 160.65 61.4352 160.502 61.4393 160.444C61.4431 160.386 62.9689 160.441 64.8478 160.566C66.7259 160.691 68.2456 160.84 68.2418 160.897Z" fill="#E0E0E0"/>
<path d="M68.3685 158.996C68.3647 159.054 66.8386 158.999 64.9604 158.874C63.0816 158.749 61.5619 158.601 61.5657 158.543C61.5695 158.486 63.0953 158.541 64.9741 158.666C66.8526 158.791 68.3723 158.939 68.3685 158.996Z" fill="#E0E0E0"/>
<path d="M68.4952 157.096C68.4914 157.153 66.9653 157.098 65.0872 156.973C63.2083 156.848 61.6886 156.7 61.6924 156.642C61.6962 156.585 63.222 156.64 65.1008 156.765C66.979 156.89 68.499 157.038 68.4952 157.096Z" fill="#E0E0E0"/>
<path d="M68.6219 155.195C68.6181 155.252 67.092 155.198 65.2139 155.072C63.335 154.947 61.8153 154.799 61.8195 154.742C61.8233 154.684 63.349 154.739 65.2279 154.864C67.1057 154.99 68.6257 155.138 68.6219 155.195Z" fill="#E0E0E0"/>
<path d="M68.7486 153.295C68.7448 153.352 67.2187 153.297 65.3406 153.172C63.4617 153.047 61.9424 152.899 61.9462 152.841C61.95 152.784 63.4758 152.839 65.3546 152.964C67.2324 153.089 68.7524 153.237 68.7486 153.295Z" fill="#E0E0E0"/>
<path d="M68.875 151.394C68.8712 151.451 67.345 151.397 65.4669 151.271C63.588 151.146 62.0683 150.998 62.0725 150.941C62.0763 150.883 63.6021 150.938 65.481 151.063C67.3591 151.188 68.8788 151.337 68.875 151.394Z" fill="#E0E0E0"/>
<path d="M99.4988 165.342L102.9 165.569L102.649 169.329C102.607 169.962 102.059 170.442 101.425 170.4L100.32 170.326C99.686 170.284 99.2062 169.736 99.2484 169.102L99.4988 165.342Z" fill="#EBEBEB"/>
<path d="M102.862 166.139L99.4607 165.913L99.7114 162.153C99.7537 161.519 100.302 161.039 100.935 161.081L102.041 161.155C102.674 161.197 103.154 161.745 103.112 162.379L102.862 166.139Z" fill="#E0E0E0"/>
<path d="M88.8691 159.089L89.7504 155.797L93.3906 156.771C94.0039 156.936 94.3684 157.566 94.204 158.18L93.9175 159.25C93.7532 159.864 93.1227 160.228 92.5093 160.064L88.8691 159.089Z" fill="#EBEBEB"/>
<path d="M90.3033 155.945L89.4221 159.237L85.7819 158.263C85.1685 158.099 84.804 157.468 84.9684 156.855L85.2549 155.784C85.4193 155.171 86.0498 154.806 86.6631 154.971L90.3033 155.945Z" fill="#E0E0E0"/>
<path d="M99.0899 160.071L98.1782 156.787L101.809 155.779C102.421 155.609 103.055 155.967 103.225 156.579L103.521 157.647C103.691 158.259 103.333 158.893 102.721 159.063L99.0899 160.071Z" fill="#EBEBEB"/>
<path d="M98.7296 156.634L99.6412 159.918L96.0102 160.926C95.3984 161.095 94.7645 160.737 94.5944 160.125L94.298 159.057C94.1283 158.445 94.4867 157.811 95.0985 157.641L98.7296 156.634Z" fill="#E0E0E0"/>
<path d="M95.0804 164.81L98.2362 166.097L96.8132 169.586C96.5735 170.175 95.9019 170.457 95.314 170.217L94.2878 169.798C93.6996 169.559 93.4173 168.887 93.6574 168.299L95.0804 164.81Z" fill="#EBEBEB"/>
<path d="M98.0201 166.627L94.8643 165.34L96.2873 161.851C96.527 161.262 97.1982 160.98 97.7864 161.22L98.8126 161.639C99.4009 161.878 99.6828 162.55 99.4431 163.138L98.0201 166.627Z" fill="#E0E0E0"/>
<path d="M148.403 20.5997L150.958 23.8856C151.058 24.0131 151.035 24.1972 150.907 24.2962L147.604 26.8652C146.569 27.67 145.077 27.4835 144.272 26.4486C143.467 25.4137 143.654 23.9221 144.689 23.117L147.992 20.5479C148.12 20.449 148.304 20.4722 148.403 20.5997Z" fill="#EBEBEB"/>
<path d="M150.33 24.3748L147.774 21.0888C147.675 20.9614 147.698 20.7772 147.826 20.6783L151.129 18.1092C152.164 17.3044 153.656 17.4909 154.46 18.5254C155.265 19.5604 155.079 21.0523 154.044 21.857L150.74 24.4261C150.613 24.5254 150.429 24.5022 150.33 24.3748Z" fill="#E0E0E0"/>
<path d="M1.94736 98.5255L5.85997 99.947C6.01179 100.002 6.09017 100.17 6.035 100.322L4.60587 104.256C4.15802 105.488 2.79624 106.124 1.56382 105.676C0.331401 105.229 -0.304403 103.867 0.143438 102.634L1.57257 98.7009C1.62736 98.5487 1.79554 98.4703 1.94736 98.5255Z" fill="#EBEBEB"/>
<path d="M5.58748 100.696L1.67487 99.2745C1.52305 99.2194 1.44467 99.0516 1.49984 98.8994L2.92897 94.9658C3.37682 93.7338 4.7386 93.0976 5.97064 93.5451C7.20306 93.9925 7.83924 95.3547 7.3914 96.5871L5.96189 100.521C5.90748 100.673 5.7393 100.751 5.58748 100.696Z" fill="#E0E0E0"/>
<path d="M166.212 173.93C166.212 173.985 129.747 174.029 84.7751 174.029C39.7874 174.029 3.33008 173.985 3.33008 173.93C3.33008 173.876 39.7878 173.831 84.7751 173.831C129.747 173.831 166.212 173.875 166.212 173.93Z" fill="#263238"/>
<path d="M135.105 137.091H43.4178C41.2951 137.091 39.5745 135.37 39.5745 133.247V9.68126C39.5745 7.55848 41.2951 5.83789 43.4178 5.83789H135.105C137.228 5.83789 138.949 7.55848 138.949 9.68126V133.247C138.949 135.37 137.228 137.091 135.105 137.091Z" fill="#455A64"/>
<path d="M132.294 12.0405H46.229V128.072H132.294V12.0405Z" fill="white"/>
<path d="M132.294 128.072C132.293 127.28 132.257 80.7436 132.204 12.0406L132.294 12.13C106.431 12.1327 77.1444 12.1361 46.2384 12.1395H46.2289L46.3279 12.0406C46.321 55.316 46.3149 95.4097 46.31 128.072L46.2289 127.991C98.3535 128.04 131.624 128.071 132.294 128.072C131.624 128.072 98.3535 128.104 46.2289 128.153H46.1479V128.072C46.1429 95.4101 46.1365 55.316 46.13 12.0406V11.9417H46.2293H46.2388C77.1448 11.9451 106.432 11.9481 132.294 11.9512H132.384V12.041C132.33 80.7436 132.295 127.281 132.294 128.072Z" fill="#263238"/>
<path d="M64.3482 31.5135L62.3399 28.4973H62.2208H60.1235V31.5135H57.7139V20.6858H62.2212C63.1435 20.6858 63.9441 20.8456 64.6236 21.1652C65.3028 21.4848 65.826 21.9388 66.1928 22.5266C66.5596 23.1145 66.7434 23.8104 66.7434 24.6148C66.7434 25.4191 66.5573 26.1128 66.1856 26.6953C65.8138 27.2778 65.2857 27.7238 64.6012 28.0335L66.9366 31.5135H64.3482ZM63.7382 23.2149C63.3611 22.89 62.8106 22.7279 62.0873 22.7279H60.1235V26.502H62.0873C62.811 26.502 63.3615 26.3373 63.7382 26.007C64.1149 25.6771 64.3036 25.2133 64.3036 24.6148C64.3036 24.0064 64.1149 23.5399 63.7382 23.2149Z" fill="#8FCFFF"/>
<path d="M69.6168 39.0001L67.2346 35.4387L64.8949 39.0001H62.2733L65.9238 33.7824L62.4563 28.7405H65.0498L67.319 32.0675L69.5461 28.7405H72.0128L68.5735 33.6945L72.2525 39.0001H69.6168Z" fill="#8FCFFF"/>
<path d="M102.406 23.2751H87.6365V26.9317H102.406V23.2751Z" fill="#E0E0E0"/>
<path d="M124.067 25.584C124.067 25.6388 120.027 25.683 115.044 25.683C110.06 25.683 106.02 25.6384 106.02 25.584C106.02 25.5292 110.06 25.4851 115.044 25.4851C120.027 25.4847 124.067 25.5292 124.067 25.584Z" fill="#263238"/>
<path d="M123.73 29.9681C123.73 30.0229 115.649 30.067 105.684 30.067C95.7154 30.067 87.6367 30.0225 87.6367 29.9681C87.6367 29.9133 95.7154 29.8691 105.684 29.8691C115.649 29.8691 123.73 29.9133 123.73 29.9681Z" fill="#263238"/>
<path d="M123.73 34.2637C123.73 34.3185 115.649 34.363 105.684 34.363C95.7154 34.363 87.6367 34.3185 87.6367 34.2637C87.6367 34.2089 95.7154 34.1648 105.684 34.1648C115.649 34.1648 123.73 34.2093 123.73 34.2637Z" fill="#263238"/>
<path d="M129.36 45.7166C129.36 45.7714 111.406 45.8155 89.2635 45.8155C67.1135 45.8155 49.1633 45.771 49.1633 45.7166C49.1633 45.6622 67.1135 45.6177 89.2635 45.6177C111.406 45.6177 129.36 45.6618 129.36 45.7166Z" fill="#263238"/>
<path d="M129.36 110.583C129.36 110.638 111.406 110.682 89.2635 110.682C67.1135 110.682 49.1633 110.638 49.1633 110.583C49.1633 110.529 67.1135 110.484 89.2635 110.484C111.406 110.484 129.36 110.529 129.36 110.583Z" fill="#263238"/>
<path d="M80.5152 52.2834H55.7701V56.9243H80.5152V52.2834Z" fill="#E0E0E0"/>
<path d="M66.4829 117.206H55.7701V121.847H66.4829V117.206Z" fill="#E0E0E0"/>
<path d="M102.446 117.206H91.7329V121.847H102.446V117.206Z" fill="#E0E0E0"/>
<path d="M84.4332 120.421C84.4332 120.476 81.0882 120.52 76.9629 120.52C72.8361 120.52 69.4919 120.475 69.4919 120.421C69.4919 120.367 72.8361 120.322 76.9629 120.322C81.0882 120.322 84.4332 120.367 84.4332 120.421Z" fill="#263238"/>
<path d="M122.893 120.421C122.893 120.476 119.548 120.52 115.423 120.52C111.296 120.52 107.952 120.475 107.952 120.421C107.952 120.367 111.296 120.322 115.423 120.322C119.548 120.322 122.893 120.367 122.893 120.421Z" fill="#263238"/>
<path d="M122.005 63.9129C122.005 63.9677 107.348 64.0118 89.2711 64.0118C71.1881 64.0118 56.5338 63.9673 56.5338 63.9129C56.5338 63.8581 71.1881 63.814 89.2711 63.814C107.348 63.814 122.005 63.8581 122.005 63.9129Z" fill="#263238"/>
<path d="M123.279 69.2107C123.279 69.2655 108.336 69.3097 89.9077 69.3097C71.4728 69.3097 56.5334 69.2652 56.5334 69.2107C56.5334 69.156 71.4731 69.1118 89.9077 69.1118C108.336 69.1118 123.279 69.156 123.279 69.2107Z" fill="#263238"/>
<path d="M88.8872 74.5088C88.8872 74.5636 81.4729 74.6078 72.3289 74.6078C63.1818 74.6078 55.769 74.5633 55.769 74.5088C55.769 74.4544 63.1818 74.4099 72.3289 74.4099C81.4729 74.4095 88.8872 74.454 88.8872 74.5088Z" fill="#263238"/>
<path d="M122.787 93.7271C122.787 93.7271 122.714 93.7556 122.567 93.802C122.422 93.8481 122.205 93.9173 121.918 93.9988C121.345 94.1624 120.496 94.4047 119.375 94.5935C118.816 94.6878 118.187 94.7651 117.494 94.7704C116.803 94.7772 116.043 94.719 115.262 94.4938C114.482 94.2723 113.693 93.8614 113.004 93.2431C112.333 92.6153 111.787 91.7344 111.644 90.7056C111.578 90.195 111.619 89.6474 111.834 89.1429C112.051 88.6437 112.415 88.1955 112.89 87.8827C113.359 87.5665 113.968 87.401 114.56 87.5281C114.854 87.5977 115.124 87.7408 115.368 87.9227C115.602 88.1182 115.795 88.3602 115.947 88.6277C116.232 89.1733 116.355 89.7966 116.353 90.4214C116.357 91.0473 116.24 91.6827 116.009 92.2854C115.529 93.4752 114.72 94.5798 113.64 95.4001C113.107 95.8198 112.505 96.1554 111.872 96.4396C111.228 96.6907 110.556 96.9183 109.849 96.9967C109.147 97.0865 108.42 97.1055 107.705 96.9723C107.343 96.9339 106.997 96.8087 106.644 96.7143C106.306 96.5747 105.957 96.4526 105.634 96.2684C104.989 95.9062 104.399 95.4302 103.916 94.8499C103.438 94.2697 103.059 93.5817 102.902 92.8246C102.729 92.0776 102.8 91.2455 103.17 90.5488C103.527 89.8514 104.115 89.2624 104.85 88.9416C105.215 88.7788 105.623 88.7019 106.024 88.7392C106.424 88.7761 106.813 88.9237 107.133 89.1574C107.787 89.6276 108.154 90.3738 108.337 91.1108C108.52 91.8562 108.549 92.6267 108.461 93.3706C108.384 94.1156 108.219 94.845 107.971 95.5386C107.481 96.9255 106.669 98.183 105.581 99.1027C104.505 100.037 103.138 100.562 101.786 100.657C100.432 100.76 99.072 100.406 98.0229 99.6483C96.9705 98.8908 96.2704 97.7744 95.9355 96.6192C95.5996 95.4625 95.6273 94.2286 96.0634 93.1875C96.2685 92.6609 96.6189 92.2021 97.0614 91.8817C97.284 91.7242 97.537 91.6028 97.8091 91.5625C98.0812 91.5229 98.3631 91.5803 98.5944 91.7139C99.0761 91.9852 99.2816 92.5228 99.3478 92.9988C99.4163 93.4862 99.3836 93.9695 99.2907 94.4188C99.1283 95.3229 98.8501 96.1493 98.5126 96.884C98.177 97.6207 97.7756 98.2626 97.3571 98.8131C96.9397 99.3649 96.5116 99.8344 96.0881 100.214C95.2507 100.985 94.4821 101.44 93.9494 101.706C93.6868 101.849 93.4715 101.927 93.3315 101.988C93.1899 102.047 93.1161 102.072 93.1161 102.072C93.1161 102.072 93.1853 102.034 93.3238 101.969C93.4612 101.902 93.6728 101.819 93.9311 101.671C94.4558 101.394 95.2126 100.932 96.0356 100.157C96.4519 99.7765 96.8719 99.307 97.2813 98.7568C97.6919 98.2078 98.085 97.5689 98.4118 96.838C98.7409 96.109 99.0111 95.2905 99.1667 94.3971C99.2557 93.9542 99.2839 93.4859 99.2162 93.019C99.1503 92.5605 98.9525 92.0716 98.5252 91.836C98.3178 91.7181 98.072 91.669 97.8296 91.7048C97.5873 91.7417 97.354 91.8532 97.1463 92.0015C96.7323 92.304 96.3978 92.7424 96.2046 93.2454C95.7868 94.2522 95.7628 95.4496 96.0927 96.5736C96.4214 97.696 97.1067 98.7789 98.1238 99.5064C99.1385 100.235 100.457 100.577 101.772 100.474C103.087 100.38 104.413 99.8683 105.458 98.9581C106.515 98.0621 107.309 96.8319 107.787 95.4735C108.03 94.7944 108.19 94.0794 108.265 93.35C108.351 92.6233 108.321 91.876 108.144 91.1588C107.968 90.4491 107.617 89.7486 107.017 89.3183C106.425 88.8807 105.609 88.8065 104.927 89.1239C104.242 89.4222 103.681 89.9807 103.345 90.639C102.997 91.2969 102.93 92.0674 103.094 92.7838C103.41 94.2324 104.488 95.4051 105.728 96.0991C106.039 96.2775 106.378 96.3955 106.706 96.5321C107.048 96.6234 107.384 96.7463 107.736 96.7836C108.43 96.9145 109.138 96.8962 109.822 96.8098C110.512 96.7349 111.168 96.5127 111.798 96.2692C112.416 95.9925 113.006 95.6657 113.527 95.2563C114.584 94.4565 115.374 93.3805 115.845 92.2226C116.069 91.6427 116.185 91.0267 116.182 90.4221C116.185 89.8183 116.067 89.2201 115.8 88.7065C115.658 88.4554 115.48 88.2301 115.265 88.049C115.04 87.8819 114.79 87.7476 114.523 87.6833C113.983 87.5661 113.417 87.7134 112.972 88.0109C112.522 88.3043 112.173 88.7301 111.966 89.2011C111.763 89.6748 111.719 90.1972 111.781 90.6877C111.913 91.6758 112.438 92.5373 113.089 93.1514C113.756 93.7568 114.527 94.165 115.291 94.3872C116.057 94.6136 116.807 94.6768 117.491 94.6757C118.177 94.676 118.803 94.6053 119.361 94.517C120.478 94.3408 121.329 94.111 121.905 93.9599C122.188 93.8831 122.405 93.8241 122.56 93.7823C122.709 93.7427 122.787 93.7271 122.787 93.7271Z" fill="#263238"/>
<path d="M103.621 4.72266H74.9014V15.7022H103.621V4.72266Z" fill="#E0E0E0"/>
<path d="M103.622 15.7021C103.622 15.7021 103.617 15.6325 103.615 15.5035C103.613 15.3673 103.611 15.1782 103.608 14.9335C103.604 14.4275 103.598 13.6946 103.591 12.7522C103.582 10.8577 103.57 8.12193 103.554 4.7226L103.622 4.79071C96.4446 4.79832 86.2279 4.80935 74.9041 4.82153H74.9033H74.9029L75.0015 4.7226C75 8.55874 74.9988 12.2678 74.9977 15.7021L74.9025 15.607C83.1965 15.6249 90.3624 15.6405 95.464 15.6515C98.0137 15.6629 100.047 15.6717 101.451 15.6781C102.146 15.6835 102.685 15.6873 103.059 15.6903C103.238 15.693 103.375 15.6949 103.477 15.6964C103.57 15.6983 103.622 15.7021 103.622 15.7021C103.624 15.704 103.578 15.7059 103.488 15.7082C103.389 15.7097 103.255 15.7116 103.081 15.7143C102.712 15.717 102.18 15.7211 101.493 15.7265C100.094 15.7326 98.0681 15.7417 95.528 15.7531C90.4103 15.7641 83.2217 15.7797 74.9018 15.7976H74.8067V15.7021C74.8055 12.2678 74.804 8.55874 74.8029 4.7226L74.9022 4.62329H74.9025H74.9037C86.2276 4.63547 96.4442 4.6465 103.622 4.65411H103.69L103.69 4.72222C103.674 8.13905 103.662 10.8885 103.653 12.7929C103.646 13.7289 103.64 14.4568 103.636 14.959C103.633 15.1983 103.631 15.3836 103.629 15.5164C103.626 15.642 103.622 15.7021 103.622 15.7021Z" fill="#263238"/>
<path d="M138.019 173.763H119.42C118.591 173.763 117.916 173.095 117.909 172.266L117.458 122.106H139.079L139.53 172.239C139.537 173.078 138.858 173.763 138.019 173.763Z" fill="#0070CD"/>
<g opacity="0.3">
<path d="M135.283 133.231V171.856C135.283 171.856 138.325 172.868 138.475 170.203C138.625 167.538 138.542 133.231 138.542 133.231H135.283Z" fill="white"/>
</g>
<path d="M137.03 119.563H119.508C118.881 119.563 118.372 120.071 118.372 120.699V121.808H138.166V120.699C138.166 120.071 137.657 119.563 137.03 119.563Z" fill="#FAFAFA"/>
<path d="M137.03 119.563C137.03 119.563 137.095 119.55 137.22 119.566C137.343 119.584 137.536 119.627 137.738 119.779C137.937 119.925 138.147 120.191 138.195 120.563C138.216 120.93 138.208 121.339 138.215 121.808L138.216 121.857L138.166 121.857C134.54 121.888 127.536 121.908 119.509 121.908C119.119 121.908 118.732 121.908 118.372 121.908H118.273V121.809C118.273 121.453 118.273 121.099 118.273 120.748C118.257 120.374 118.429 119.988 118.719 119.75C118.864 119.63 119.036 119.546 119.217 119.501C119.402 119.453 119.585 119.468 119.749 119.466C120.09 119.466 120.427 119.467 120.761 119.467C122.097 119.469 123.384 119.471 124.609 119.474C127.053 119.482 129.248 119.489 131.093 119.495C132.922 119.508 134.403 119.519 135.441 119.526C135.942 119.533 136.336 119.539 136.62 119.544C136.745 119.547 136.846 119.551 136.926 119.553C136.994 119.556 137.03 119.559 137.03 119.563C137.03 119.566 136.994 119.569 136.926 119.573C136.846 119.575 136.745 119.578 136.62 119.582C136.337 119.586 135.942 119.592 135.441 119.6C134.403 119.608 132.922 119.618 131.093 119.631C129.248 119.637 127.053 119.644 124.609 119.653C123.384 119.655 122.097 119.657 120.761 119.659C120.427 119.659 120.09 119.66 119.749 119.66C119.575 119.662 119.411 119.651 119.263 119.691C119.111 119.728 118.966 119.8 118.845 119.901C118.296 120.316 118.517 121.113 118.471 121.808L118.372 121.709C118.732 121.709 119.119 121.709 119.509 121.709C127.536 121.709 134.54 121.73 138.166 121.76L138.117 121.809C138.117 121.343 138.132 120.921 138.12 120.572C138.082 120.223 137.891 119.966 137.706 119.82C137.314 119.528 137.019 119.588 137.03 119.563Z" fill="#263238"/>
<path d="M140.351 133.231H116.187C115.632 133.231 115.182 132.781 115.182 132.226V122.285C115.182 121.73 115.632 121.28 116.187 121.28H140.351C140.906 121.28 141.356 121.73 141.356 122.285V132.226C141.356 132.781 140.906 133.231 140.351 133.231Z" fill="#FAFAFA"/>
<path d="M140.351 133.231C140.35 133.224 140.417 133.228 140.54 133.202C140.661 133.176 140.847 133.113 141.024 132.944C141.467 132.609 141.289 131.8 141.317 130.876C141.31 128.982 141.299 126.256 141.286 122.891C141.284 122.681 141.283 122.468 141.282 122.253C141.277 122.052 141.2 121.855 141.072 121.695C140.94 121.539 140.757 121.422 140.553 121.378C140.355 121.338 140.115 121.363 139.888 121.356C138.968 121.358 138.011 121.36 137.019 121.362C135.037 121.365 132.919 121.368 130.69 121.371C126.232 121.374 121.332 121.376 116.188 121.379C115.896 121.378 115.612 121.525 115.447 121.762C115.361 121.879 115.31 122.018 115.289 122.16C115.272 122.295 115.283 122.467 115.28 122.623C115.28 123.258 115.279 123.889 115.279 124.515C115.279 125.768 115.278 127.003 115.278 128.216C115.277 129.429 115.276 130.62 115.275 131.787L115.275 132.223C115.275 132.356 115.304 132.486 115.358 132.605C115.466 132.842 115.68 133.031 115.93 133.101C116.056 133.139 116.179 133.14 116.327 133.138L116.751 133.139C117.033 133.139 117.313 133.14 117.592 133.14C122.049 133.148 126.062 133.155 129.436 133.161C132.801 133.174 135.528 133.185 137.421 133.192C138.357 133.2 139.087 133.207 139.592 133.211C139.834 133.215 140.022 133.219 140.157 133.221C140.286 133.224 140.351 133.231 140.351 133.231C140.351 133.231 140.286 133.238 140.158 133.241C140.023 133.243 139.835 133.247 139.593 133.251C139.088 133.255 138.358 133.262 137.422 133.27C135.528 133.277 132.802 133.288 129.437 133.301C126.063 133.307 122.049 133.315 117.593 133.323C117.314 133.323 117.034 133.323 116.752 133.323L116.328 133.324C116.192 133.326 116.027 133.326 115.879 133.28C115.578 133.195 115.32 132.97 115.189 132.683C115.122 132.54 115.087 132.382 115.088 132.224L115.087 131.787C115.087 130.62 115.086 129.429 115.085 128.216C115.085 127.003 115.084 125.769 115.084 124.516C115.084 123.889 115.083 123.258 115.083 122.623C115.087 122.461 115.074 122.314 115.095 122.133C115.119 121.96 115.183 121.791 115.286 121.649C115.487 121.359 115.835 121.18 116.189 121.181C121.332 121.184 126.233 121.187 130.691 121.189C132.92 121.192 135.038 121.195 137.021 121.198C138.011 121.2 138.969 121.202 139.889 121.204C140.12 121.213 140.341 121.184 140.587 121.232C140.824 121.284 141.036 121.421 141.186 121.603C141.334 121.787 141.422 122.017 141.426 122.249C141.426 122.465 141.426 122.679 141.426 122.891C141.413 126.256 141.402 128.982 141.395 130.876C141.391 131.346 141.388 131.765 141.386 132.129C141.407 132.502 141.241 132.809 141.052 132.973C140.863 133.144 140.669 133.202 140.544 133.223C140.416 133.242 140.351 133.231 140.351 133.231Z" fill="#263238"/>
<path d="M116.701 133.034C116.646 133.034 116.602 130.49 116.602 127.353C116.602 124.214 116.646 121.671 116.701 121.671C116.756 121.671 116.8 124.214 116.8 127.353C116.8 130.49 116.756 133.034 116.701 133.034Z" fill="#263238"/>
<path d="M118.68 133.034C118.626 133.034 118.582 130.49 118.582 127.353C118.582 124.214 118.626 121.671 118.68 121.671C118.735 121.671 118.779 124.214 118.779 127.353C118.779 130.49 118.735 133.034 118.68 133.034Z" fill="#263238"/>
<path d="M120.66 133.034C120.605 133.034 120.561 130.49 120.561 127.353C120.561 124.214 120.605 121.671 120.66 121.671C120.715 121.671 120.759 124.214 120.759 127.353C120.759 130.49 120.715 133.034 120.66 133.034Z" fill="#263238"/>
<path d="M122.639 133.034C122.584 133.034 122.54 130.49 122.54 127.353C122.54 124.214 122.585 121.671 122.639 121.671C122.694 121.671 122.738 124.214 122.738 127.353C122.739 130.49 122.694 133.034 122.639 133.034Z" fill="#263238"/>
<path d="M124.619 133.034C124.564 133.034 124.52 130.49 124.52 127.353C124.52 124.214 124.565 121.671 124.619 121.671C124.673 121.671 124.718 124.214 124.718 127.353C124.718 130.49 124.673 133.034 124.619 133.034Z" fill="#263238"/>
<path d="M126.598 133.034C126.543 133.034 126.499 130.49 126.499 127.353C126.499 124.214 126.543 121.671 126.598 121.671C126.653 121.671 126.697 124.214 126.697 127.353C126.697 130.49 126.653 133.034 126.598 133.034Z" fill="#263238"/>
<path d="M128.577 133.034C128.523 133.034 128.479 130.49 128.479 127.353C128.479 124.214 128.523 121.671 128.577 121.671C128.632 121.671 128.676 124.214 128.676 127.353C128.677 130.49 128.632 133.034 128.577 133.034Z" fill="#263238"/>
<path d="M130.557 133.034C130.502 133.034 130.458 130.49 130.458 127.353C130.458 124.214 130.503 121.671 130.557 121.671C130.612 121.671 130.656 124.214 130.656 127.353C130.656 130.49 130.612 133.034 130.557 133.034Z" fill="#263238"/>
<path d="M132.536 133.034C132.482 133.034 132.438 130.49 132.438 127.353C132.438 124.214 132.482 121.671 132.536 121.671C132.591 121.671 132.635 124.214 132.635 127.353C132.635 130.49 132.591 133.034 132.536 133.034Z" fill="#263238"/>
<path d="M134.516 133.034C134.461 133.034 134.417 130.49 134.417 127.353C134.417 124.214 134.462 121.671 134.516 121.671C134.571 121.671 134.615 124.214 134.615 127.353C134.615 130.49 134.571 133.034 134.516 133.034Z" fill="#263238"/>
<path d="M136.495 133.034C136.44 133.034 136.396 130.49 136.396 127.353C136.396 124.214 136.441 121.671 136.495 121.671C136.55 121.671 136.594 124.214 136.594 127.353C136.594 130.49 136.55 133.034 136.495 133.034Z" fill="#263238"/>
<path d="M138.475 133.034C138.42 133.034 138.376 130.49 138.376 127.353C138.376 124.214 138.42 121.671 138.475 121.671C138.529 121.671 138.574 124.214 138.574 127.353C138.574 130.49 138.53 133.034 138.475 133.034Z" fill="#263238"/>
<path d="M140.454 133.034C140.399 133.034 140.355 130.49 140.355 127.353C140.355 124.214 140.4 121.671 140.454 121.671C140.509 121.671 140.553 124.214 140.553 127.353C140.553 130.49 140.509 133.034 140.454 133.034Z" fill="#263238"/>
<path d="M137.867 142.233H119.152V157.219H137.867V142.233Z" fill="white"/>
<path d="M122.367 147.005L121.931 146.376H121.905H121.45V147.005H120.928V144.746H121.905C122.105 144.746 122.279 144.78 122.426 144.846C122.574 144.913 122.687 145.008 122.767 145.13C122.846 145.253 122.886 145.398 122.886 145.566C122.886 145.733 122.846 145.878 122.765 146C122.684 146.121 122.57 146.214 122.422 146.279L122.928 147.005H122.367V147.005ZM122.235 145.274C122.153 145.206 122.034 145.172 121.877 145.172H121.451V145.959H121.877C122.034 145.959 122.153 145.925 122.235 145.856C122.316 145.787 122.357 145.69 122.357 145.566C122.357 145.439 122.316 145.342 122.235 145.274Z" fill="#263238"/>
<path d="M123.51 148.566L122.993 147.823L122.486 148.566H121.917L122.709 147.478L121.957 146.426H122.519L123.012 147.12L123.495 146.426H124.03L123.284 147.46L124.082 148.566H123.51Z" fill="#263238"/>
<path d="M136.495 144.74H125.808V146.365H136.495V144.74Z" fill="#E0E0E0"/>
<path d="M135.283 150.398C135.283 150.453 132.161 150.497 128.312 150.497C124.461 150.497 121.34 150.453 121.34 150.398C121.34 150.344 124.461 150.299 128.312 150.299C132.161 150.299 135.283 150.344 135.283 150.398Z" fill="#263238"/>
<path d="M135.283 152.091C135.283 152.145 132.161 152.19 128.312 152.19C124.461 152.19 121.34 152.145 121.34 152.091C121.34 152.036 124.461 151.992 128.312 151.992C132.161 151.992 135.283 152.036 135.283 152.091Z" fill="#263238"/>
<path d="M127.556 154.208H120.334V155.6H127.556V154.208Z" fill="#E0E0E0"/>
<path d="M137.443 156.759C137.443 156.759 137.437 156.665 137.434 156.492C137.432 156.31 137.429 156.056 137.425 155.73C137.42 155.056 137.412 154.085 137.403 152.851C137.393 150.371 137.379 146.837 137.361 142.577L137.443 142.659C132.317 142.664 126.146 142.669 119.504 142.675C119.481 142.696 119.69 142.489 119.601 142.578V142.582V142.59V142.605V142.635V142.695V142.815V143.054V143.532C119.601 143.849 119.601 144.166 119.601 144.481C119.601 145.111 119.601 145.737 119.601 146.356C119.6 147.596 119.599 148.812 119.599 150.001C119.596 152.379 119.594 154.645 119.591 156.759L119.503 156.671C124.814 156.689 129.287 156.704 132.442 156.715C134.015 156.725 135.259 156.733 136.12 156.739C136.541 156.743 136.868 156.747 137.1 156.75C137.205 156.752 137.289 156.753 137.354 156.754C137.412 156.756 137.442 156.758 137.443 156.759C137.445 156.761 137.418 156.763 137.364 156.764C137.301 156.766 137.221 156.767 137.12 156.769C136.892 156.772 136.571 156.775 136.158 156.78C135.301 156.785 134.064 156.793 132.499 156.804C129.33 156.815 124.838 156.83 119.503 156.848L119.414 156.848V156.759C119.412 154.645 119.409 152.379 119.406 150.001C119.406 148.812 119.405 147.596 119.404 146.356C119.404 145.737 119.404 145.111 119.404 144.481C119.404 144.166 119.404 143.849 119.404 143.532V143.054V142.815V142.695V142.635V142.605V142.59V142.582V142.578C119.315 142.666 119.525 142.455 119.505 142.477C126.147 142.483 132.318 142.489 137.444 142.494H137.526L137.526 142.576C137.508 146.858 137.494 150.41 137.483 152.902C137.474 154.128 137.467 155.094 137.462 155.763C137.458 156.083 137.455 156.331 137.452 156.509C137.449 156.678 137.443 156.759 137.443 156.759Z" fill="#263238"/>
<path d="M118.68 169.673C118.626 169.673 118.582 161.849 118.582 152.201C118.582 142.549 118.626 134.728 118.68 134.728C118.735 134.728 118.779 142.549 118.779 152.201C118.779 161.849 118.735 169.673 118.68 169.673Z" fill="white"/>
<path d="M137.887 172.948C137.887 173.003 133.804 173.047 128.769 173.047C123.732 173.047 119.65 173.003 119.65 172.948C119.65 172.894 123.732 172.849 128.769 172.849C133.804 172.849 137.887 172.893 137.887 172.948Z" fill="#263238"/>
<path d="M156.436 173.739H141.369C140.697 173.739 140.151 173.197 140.145 172.525L139.78 131.891H157.296L157.661 172.503C157.666 173.183 157.116 173.739 156.436 173.739Z" fill="#455A64"/>
<g opacity="0.3">
<path d="M154.22 140.903V172.193C154.22 172.193 156.684 173.013 156.806 170.854C156.927 168.695 156.86 140.903 156.86 140.903H154.22Z" fill="white"/>
</g>
<path d="M155.419 129.83H141.656C141.029 129.83 140.52 130.339 140.52 130.966V131.649H156.556V130.966C156.556 130.339 156.047 129.83 155.419 129.83Z" fill="#FAFAFA"/>
<path d="M155.419 129.83C155.419 129.83 155.474 129.819 155.582 129.83C155.69 129.839 155.853 129.873 156.037 129.983C156.22 130.091 156.423 130.287 156.53 130.587C156.586 130.734 156.604 130.914 156.6 131.087C156.602 131.263 156.604 131.451 156.605 131.649L156.606 131.699L156.555 131.699C153.591 131.729 148.023 131.748 141.657 131.748C141.267 131.748 140.88 131.748 140.519 131.748H140.418L140.421 131.649C140.427 131.359 140.407 131.097 140.435 130.791C140.477 130.49 140.635 130.209 140.866 130.019C141.094 129.826 141.397 129.728 141.686 129.733C141.957 129.733 142.225 129.734 142.491 129.734C143.555 129.736 144.579 129.739 145.553 129.74C147.496 129.748 149.239 129.756 150.707 129.762C152.155 129.775 153.328 129.785 154.159 129.793C154.552 129.801 154.864 129.807 155.093 129.811C155.308 129.817 155.419 129.824 155.419 129.83C155.419 129.837 155.307 129.843 155.094 129.849C154.864 129.854 154.552 129.86 154.159 129.867C153.329 129.875 152.155 129.885 150.707 129.898C149.24 129.904 147.496 129.911 145.553 129.92C144.579 129.922 143.555 129.924 142.492 129.926C142.226 129.927 141.957 129.927 141.686 129.927C141.433 129.924 141.186 130.006 140.991 130.169C140.797 130.33 140.665 130.566 140.63 130.819C140.607 131.07 140.624 131.372 140.619 131.649L140.52 131.55C140.881 131.55 141.268 131.55 141.657 131.55C148.024 131.55 153.592 131.57 156.556 131.599L156.505 131.649C156.507 131.451 156.509 131.264 156.511 131.087C156.518 130.909 156.506 130.755 156.457 130.613C156.365 130.33 156.179 130.137 156.01 130.028C155.657 129.809 155.412 129.853 155.419 129.83Z" fill="#263238"/>
<path d="M158.135 140.903H138.941C138.386 140.903 137.936 140.453 137.936 139.898V132.227C137.936 131.671 138.386 131.222 138.941 131.222H158.135C158.69 131.222 159.139 131.672 159.139 132.227V139.898C159.139 140.453 158.69 140.903 158.135 140.903Z" fill="#FAFAFA"/>
<path d="M158.135 140.903C158.127 140.883 158.365 140.929 158.696 140.707C158.854 140.594 159.022 140.397 159.084 140.118C159.119 139.98 159.105 139.824 159.106 139.654C159.104 139.485 159.103 139.306 159.101 139.117C159.093 137.587 159.083 135.391 159.069 132.682C159.068 132.515 159.071 132.337 159.065 132.171C159.057 132.01 159.002 131.851 158.912 131.713C158.727 131.435 158.396 131.27 158.038 131.298C157.296 131.3 156.525 131.302 155.726 131.304C154.129 131.307 152.422 131.31 150.627 131.313C147.034 131.315 143.087 131.318 138.942 131.32C138.466 131.309 138.039 131.726 138.037 132.195C138.036 132.706 138.035 133.213 138.035 133.717C138.034 134.726 138.033 135.721 138.033 136.698C138.032 137.675 138.032 138.635 138.031 139.576C138.035 139.816 138.008 140.041 138.095 140.233C138.172 140.429 138.319 140.596 138.501 140.697C138.691 140.803 138.885 140.819 139.121 140.811C139.348 140.811 139.574 140.811 139.799 140.811C143.389 140.819 146.622 140.827 149.342 140.833C152.051 140.846 154.246 140.857 155.776 140.864C156.527 140.872 157.114 140.879 157.525 140.883C157.717 140.887 157.868 140.89 157.98 140.893C158.082 140.896 158.135 140.9 158.135 140.903C158.135 140.906 158.082 140.91 157.98 140.913C157.868 140.916 157.717 140.919 157.525 140.923C157.114 140.928 156.527 140.934 155.776 140.942C154.246 140.949 152.051 140.96 149.342 140.973C146.622 140.98 143.389 140.987 139.799 140.995C139.574 140.995 139.348 140.996 139.121 140.996C138.906 141.006 138.627 140.988 138.412 140.86C138.191 140.739 138.014 140.539 137.92 140.303C137.872 140.185 137.846 140.058 137.844 139.93L137.842 139.576C137.841 138.636 137.84 137.676 137.839 136.698C137.839 135.721 137.838 134.726 137.838 133.717C137.838 133.211 137.839 132.702 137.839 132.189C137.842 131.616 138.363 131.109 138.943 131.123C143.087 131.126 147.035 131.128 150.628 131.131C152.423 131.134 154.129 131.137 155.727 131.14C156.525 131.142 157.297 131.144 158.038 131.146C158.424 131.116 158.832 131.31 159.035 131.633C159.138 131.794 159.201 131.978 159.209 132.164C159.215 132.346 159.21 132.512 159.211 132.684C159.197 135.392 159.187 137.588 159.179 139.118C159.177 139.307 159.176 139.486 159.174 139.655C159.171 139.821 159.182 139.984 159.142 140.132C159.07 140.427 158.887 140.629 158.72 140.741C158.549 140.854 158.393 140.889 158.291 140.901C158.187 140.913 158.135 140.903 158.135 140.903Z" fill="#263238"/>
<path d="M139.167 140.744C139.112 140.744 139.068 138.683 139.068 136.141C139.068 133.599 139.112 131.538 139.167 131.538C139.221 131.538 139.265 133.599 139.265 136.141C139.265 138.683 139.221 140.744 139.167 140.744Z" fill="#263238"/>
<path d="M140.77 140.744C140.715 140.744 140.671 138.683 140.671 136.141C140.671 133.599 140.716 131.538 140.77 131.538C140.824 131.538 140.869 133.599 140.869 136.141C140.869 138.683 140.825 140.744 140.77 140.744Z" fill="#263238"/>
<path d="M142.374 140.744C142.319 140.744 142.275 138.683 142.275 136.141C142.275 133.599 142.319 131.538 142.374 131.538C142.428 131.538 142.473 133.599 142.473 136.141C142.473 138.683 142.429 140.744 142.374 140.744Z" fill="#263238"/>
<path d="M143.977 140.744C143.922 140.744 143.878 138.683 143.878 136.141C143.878 133.599 143.923 131.538 143.977 131.538C144.032 131.538 144.076 133.599 144.076 136.141C144.076 138.683 144.032 140.744 143.977 140.744Z" fill="#263238"/>
<path d="M145.581 140.744C145.526 140.744 145.482 138.683 145.482 136.141C145.482 133.599 145.527 131.538 145.581 131.538C145.636 131.538 145.68 133.599 145.68 136.141C145.68 138.683 145.636 140.744 145.581 140.744Z" fill="#263238"/>
<path d="M147.184 140.744C147.13 140.744 147.085 138.683 147.085 136.141C147.085 133.599 147.13 131.538 147.184 131.538C147.239 131.538 147.283 133.599 147.283 136.141C147.283 138.683 147.239 140.744 147.184 140.744Z" fill="#263238"/>
<path d="M148.788 140.744C148.733 140.744 148.689 138.683 148.689 136.141C148.689 133.599 148.733 131.538 148.788 131.538C148.842 131.538 148.887 133.599 148.887 136.141C148.887 138.683 148.843 140.744 148.788 140.744Z" fill="#263238"/>
<path d="M150.391 140.744C150.337 140.744 150.292 138.683 150.292 136.141C150.292 133.599 150.337 131.538 150.391 131.538C150.446 131.538 150.49 133.599 150.49 136.141C150.49 138.683 150.446 140.744 150.391 140.744Z" fill="#263238"/>
<path d="M151.995 140.744C151.94 140.744 151.896 138.683 151.896 136.141C151.896 133.599 151.941 131.538 151.995 131.538C152.049 131.538 152.094 133.599 152.094 136.141C152.094 138.683 152.05 140.744 151.995 140.744Z" fill="#263238"/>
<path d="M153.598 140.744C153.543 140.744 153.499 138.683 153.499 136.141C153.499 133.599 153.544 131.538 153.598 131.538C153.653 131.538 153.697 133.599 153.697 136.141C153.698 138.683 153.653 140.744 153.598 140.744Z" fill="#263238"/>
<path d="M155.202 140.744C155.147 140.744 155.103 138.683 155.103 136.141C155.103 133.599 155.148 131.538 155.202 131.538C155.257 131.538 155.301 133.599 155.301 136.141C155.301 138.683 155.257 140.744 155.202 140.744Z" fill="#263238"/>
<path d="M156.805 140.744C156.751 140.744 156.707 138.683 156.707 136.141C156.707 133.599 156.751 131.538 156.805 131.538C156.86 131.538 156.904 133.599 156.904 136.141C156.905 138.683 156.86 140.744 156.805 140.744Z" fill="#263238"/>
<path d="M158.409 140.744C158.354 140.744 158.31 138.683 158.31 136.141C158.31 133.599 158.355 131.538 158.409 131.538C158.464 131.538 158.508 133.599 158.508 136.141C158.508 138.683 158.464 140.744 158.409 140.744Z" fill="#263238"/>
<path d="M156.313 148.196H141.152V160.336H156.313V148.196Z" fill="white"/>
<path d="M143.756 152.061L143.403 151.551H143.382H143.014V152.061H142.591V150.231H143.382C143.544 150.231 143.685 150.258 143.804 150.312C143.924 150.367 144.016 150.443 144.08 150.542C144.145 150.642 144.177 150.759 144.177 150.895C144.177 151.032 144.144 151.148 144.079 151.247C144.014 151.346 143.921 151.421 143.801 151.473L144.211 152.061H143.756ZM143.649 150.659C143.583 150.604 143.486 150.577 143.359 150.577H143.014V151.215H143.359C143.486 151.215 143.583 151.187 143.649 151.131C143.716 151.075 143.749 150.997 143.749 150.896C143.749 150.793 143.716 150.714 143.649 150.659Z" fill="#263238"/>
<path d="M144.683 153.326L144.264 152.724L143.853 153.326H143.392L144.033 152.444L143.424 151.593H143.88L144.278 152.155L144.67 151.593H145.103L144.499 152.429L145.145 153.326H144.683Z" fill="#263238"/>
<path d="M155.202 150.227H146.544V151.543H155.202V150.227Z" fill="#E0E0E0"/>
<path d="M154.22 154.81C154.22 154.865 151.691 154.909 148.572 154.909C145.453 154.909 142.925 154.865 142.925 154.81C142.925 154.756 145.453 154.711 148.572 154.711C151.691 154.711 154.22 154.756 154.22 154.81Z" fill="#263238"/>
<path d="M154.22 156.182C154.22 156.236 151.691 156.281 148.572 156.281C145.453 156.281 142.925 156.236 142.925 156.182C142.925 156.127 145.453 156.083 148.572 156.083C151.691 156.082 154.22 156.127 154.22 156.182Z" fill="#263238"/>
<path d="M147.96 157.896H142.11V159.024H147.96V157.896Z" fill="#E0E0E0"/>
<path d="M155.97 159.964C155.97 159.964 155.964 159.887 155.961 159.745C155.959 159.594 155.956 159.389 155.952 159.126C155.947 158.576 155.94 157.79 155.93 156.792C155.92 154.78 155.905 151.92 155.888 148.474L155.97 148.556C151.817 148.561 146.818 148.567 141.437 148.573C141.415 148.594 141.624 148.386 141.535 148.475V148.478V148.484V148.497V148.521V148.57V148.667V148.86V149.247C141.535 149.504 141.535 149.761 141.535 150.016C141.535 150.526 141.535 151.033 141.535 151.535C141.534 152.539 141.533 153.525 141.533 154.488C141.53 156.414 141.528 158.25 141.525 159.963L141.437 159.874C145.735 159.892 149.354 159.908 151.913 159.919C153.185 159.928 154.193 159.936 154.895 159.942C155.234 159.947 155.498 159.95 155.69 159.953C155.774 159.955 155.842 159.957 155.897 159.958C155.944 159.96 155.969 159.962 155.97 159.964C155.972 159.965 155.951 159.967 155.907 159.969C155.855 159.97 155.79 159.972 155.71 159.974C155.523 159.977 155.264 159.98 154.933 159.985C154.235 159.99 153.234 159.998 151.971 160.008C149.398 160.019 145.758 160.035 141.437 160.053L141.348 160.053V159.964C141.346 158.251 141.343 156.415 141.34 154.49C141.34 153.527 141.339 152.541 141.339 151.537C141.339 151.035 141.338 150.528 141.338 150.017C141.338 149.762 141.338 149.506 141.338 149.248V148.862V148.668V148.571V148.522V148.497V148.485V148.479V148.476C141.25 148.564 141.459 148.353 141.439 148.375C146.819 148.382 151.818 148.387 155.971 148.392H156.054L156.053 148.474C156.036 151.942 156.021 154.82 156.011 156.844C156.002 157.833 155.994 158.614 155.989 159.16C155.986 159.415 155.982 159.615 155.98 159.763C155.976 159.898 155.973 159.967 155.97 159.964Z" fill="#263238"/>
<path d="M140.77 170.425C140.715 170.425 140.671 164.087 140.671 156.271C140.671 148.452 140.716 142.116 140.77 142.116C140.824 142.116 140.869 148.452 140.869 156.271C140.869 164.087 140.825 170.425 140.77 170.425Z" fill="white"/>
<path d="M156.329 173.078C156.329 173.133 153.022 173.177 148.943 173.177C144.863 173.177 141.556 173.133 141.556 173.078C141.556 173.024 144.863 172.979 148.943 172.979C153.022 172.979 156.329 173.024 156.329 173.078Z" fill="#263238"/>
<path d="M34.6653 157.49L32.1407 166.449C32.1407 166.449 40.1817 172.087 39.8723 173.789L22.7406 169.398L26.1148 155.273L34.6653 157.49Z" fill="#455A64"/>
<path d="M27.0292 164.331C26.6749 164.339 26.3527 164.662 26.3458 165.025C26.339 165.388 26.6571 165.727 27.0113 165.725C27.3655 165.724 27.7643 165.348 27.7312 164.986C27.6985 164.625 27.3039 164.248 26.9603 164.337" fill="#E0E0E0"/>
<g opacity="0.6">
<path d="M22.741 169.399L23.1355 167.989L39.4138 172.726C39.4138 172.726 40.0934 173.261 39.8727 173.79L22.741 169.399Z" fill="white"/>
</g>
<path d="M32.4406 166.431C32.417 166.516 31.9893 166.448 31.5103 166.618C31.0271 166.775 30.7242 167.092 30.6553 167.038C30.5823 167.002 30.8323 166.522 31.4155 166.326C31.9969 166.125 32.4779 166.357 32.4406 166.431Z" fill="#263238"/>
<path d="M34.0516 167.653C34.0504 167.741 33.6524 167.794 33.2799 168.084C32.8991 168.362 32.7316 168.736 32.6491 168.711C32.5673 168.704 32.6319 168.187 33.1019 167.836C33.5687 167.481 34.0695 167.571 34.0516 167.653Z" fill="#263238"/>
<path d="M34.534 170.118C34.4534 170.117 34.4416 169.659 34.7711 169.244C35.0976 168.828 35.5374 168.743 35.5553 168.824C35.5853 168.906 35.2699 169.093 35.0043 169.437C34.7315 169.776 34.6193 170.131 34.534 170.118Z" fill="#263238"/>
<path d="M32.7948 164.324C32.7408 164.393 32.3858 164.176 31.9048 164.088C31.4258 163.99 31.0179 164.058 30.9924 163.973C30.9589 163.899 31.3957 163.674 31.9608 163.786C32.5262 163.894 32.8523 164.267 32.7948 164.324Z" fill="#263238"/>
<path d="M28.6596 159.599L28.262 168.916C28.262 168.916 37.3714 172.459 37.4616 174.188L19.8025 174.047L19.8405 159.505L28.6596 159.599Z" fill="#455A64"/>
<path d="M22.8076 168.088C22.4651 168.181 22.2258 168.573 22.3023 168.928C22.3787 169.282 22.7657 169.535 23.11 169.448C23.454 169.361 23.7554 168.9 23.6405 168.556C23.5255 168.213 23.0556 167.942 22.7421 168.111" fill="#E0E0E0"/>
<g opacity="0.6">
<path d="M19.8024 174.047L19.8621 172.581L36.7712 173.264C36.7712 173.264 37.5547 173.621 37.4615 174.188L19.8024 174.047Z" fill="white"/>
</g>
<path d="M28.5487 168.826C28.5453 168.914 28.1138 168.951 27.6873 169.232C27.2535 169.501 27.0321 169.882 26.9529 169.846C26.8738 169.828 27.0062 169.301 27.5282 168.971C28.0476 168.635 28.5681 168.745 28.5487 168.826Z" fill="#263238"/>
<path d="M30.3952 169.626C30.4142 169.711 30.0398 169.859 29.7438 170.23C29.4375 170.592 29.3607 170.996 29.2747 170.991C29.1936 171.005 29.1377 170.487 29.514 170.032C29.8861 169.574 30.3937 169.541 30.3952 169.626Z" fill="#263238"/>
<path d="M31.4299 171.905C31.3515 171.923 31.2347 171.481 31.46 170.999C31.6818 170.515 32.0897 170.328 32.1258 170.402C32.1741 170.475 31.9101 170.732 31.7312 171.131C31.5433 171.525 31.5155 171.897 31.4299 171.905Z" fill="#263238"/>
<path d="M28.4095 166.693C28.3726 166.773 27.978 166.648 27.4902 166.678C27.002 166.697 26.6215 166.862 26.577 166.786C26.5276 166.722 26.9004 166.398 27.4754 166.371C28.0499 166.339 28.4525 166.623 28.4095 166.693Z" fill="#263238"/>
<path d="M17.7352 91.4272V98.7936L19.6662 127.492C19.6662 127.492 18.4642 141.414 17.7265 149.273C17.0857 156.097 18.1332 167.983 18.1332 167.983H29.3734L33.3948 128.345L35.8908 103.624L40.2334 92.3728L17.7352 91.4272Z" fill="#263238"/>
<path d="M47.335 92.7102L45.1822 132.749L33.8111 162.726L33.2887 164.531L26.573 162.868L31.5674 91.9302L47.335 92.7102Z" fill="#263238"/>
<path d="M35.8612 103.92C35.8646 103.92 35.8662 103.976 35.865 104.086C35.8627 104.207 35.8597 104.368 35.8555 104.575C35.8422 105.016 35.8232 105.645 35.7988 106.451C35.7535 108.081 35.6394 110.438 35.478 113.349C35.139 119.17 34.5063 127.203 33.52 136.043C32.549 144.887 31.4764 152.869 30.6926 158.644C30.2946 161.522 29.9719 163.854 29.7474 165.48C29.6329 166.278 29.5431 166.901 29.4807 167.337C29.4491 167.541 29.4244 167.701 29.4061 167.82C29.3882 167.928 29.3772 167.984 29.3734 167.983C29.37 167.983 29.3738 167.926 29.3848 167.817C29.3981 167.697 29.416 167.537 29.4389 167.332C29.4925 166.894 29.569 166.269 29.6668 165.469C29.876 163.841 30.1759 161.505 30.5465 158.624C31.2926 152.844 32.3416 144.861 33.3123 136.019C34.2985 127.182 34.9541 119.156 35.3308 113.34C35.5111 110.431 35.6477 108.077 35.7181 106.448C35.7592 105.643 35.7916 105.013 35.814 104.573C35.827 104.367 35.8369 104.205 35.8441 104.086C35.8517 103.976 35.8574 103.919 35.8612 103.92Z" fill="#455A64"/>
<path d="M36.5731 93.9035C36.5731 94.2307 36.314 94.4959 35.9947 94.4959C35.6755 94.4959 35.4164 94.2307 35.4164 93.9035C35.4164 93.5762 35.6755 93.311 35.9947 93.311C36.3143 93.311 36.5731 93.5762 36.5731 93.9035Z" fill="#455A64"/>
<path d="M46.4549 99.4959C46.4396 99.5134 46.1094 99.2512 45.6623 98.7345C45.2152 98.2201 44.6715 97.4328 44.2488 96.469C43.8287 95.5037 43.6175 94.5635 43.5407 93.8794C43.4623 93.1938 43.4912 92.7668 43.514 92.7668C43.549 92.7653 43.5726 93.1884 43.6871 93.857C43.8002 94.5251 44.0292 95.4368 44.4401 96.3815C44.8541 97.3244 45.3655 98.1063 45.7764 98.6379C46.187 99.1706 46.4792 99.4704 46.4549 99.4959Z" fill="#455A64"/>
<path d="M45.1113 55.3083C45.1113 55.3083 47.2638 56.1519 48.2588 59.3028C48.9509 61.4948 52.195 77.81 52.195 77.81L47.674 80.7896L45.8373 65.5284L45.1113 55.3083Z" fill="#E0E0E0"/>
<path d="M27.9221 47.5132L26.5059 50.026C26.5059 50.026 17.0469 54.8343 17.0796 55.3084C17.0796 55.3084 17.6054 73.2593 17.7059 86.4259C17.7439 91.3993 17.5609 95.9686 17.4609 98.1656C17.1983 103.929 16.9948 126.315 16.9948 126.315L51.2411 125.504L45.1113 55.3087L40.2813 53.1955L39.6645 51.9345L37.4451 50.1329L27.9221 47.5132Z" fill="#E0E0E0"/>
<path d="M42.9274 125.7C42.9308 125.7 42.9312 125.648 42.9278 125.547C42.9232 125.436 42.9167 125.288 42.9087 125.099C42.8867 124.694 42.8558 124.117 42.8159 123.379C42.7268 121.873 42.599 119.715 42.4415 117.053C42.1184 111.702 41.6736 104.329 41.1824 96.1848C40.7133 88.0366 40.2887 80.6614 39.9808 75.3098C39.8381 72.6471 39.7221 70.4882 39.6414 68.9826C39.6 68.2448 39.5672 67.6676 39.5444 67.2624C39.5315 67.074 39.5216 66.926 39.514 66.8153C39.506 66.7145 39.5003 66.6631 39.4965 66.6631C39.493 66.6631 39.4919 66.7152 39.4927 66.816C39.4949 66.9271 39.4984 67.0755 39.5026 67.2639C39.5162 67.6695 39.5357 68.2471 39.5608 68.986C39.6125 70.4813 39.7103 72.6444 39.8343 75.317C40.0877 80.6622 40.4892 88.0441 40.9754 96.1966C41.461 104.346 41.9354 111.723 42.295 117.062C42.4799 119.723 42.6302 121.88 42.7348 123.384C42.7912 124.121 42.8353 124.697 42.8665 125.102C42.8832 125.29 42.8962 125.438 42.9061 125.549C42.9167 125.649 42.9236 125.7 42.9274 125.7Z" fill="#263238"/>
<path d="M37.4451 50.1324L38.2411 55.629L39.6645 66.6637L33.4632 56.0191L28.0781 48.9651L36.9493 55.1816L37.062 50.0282" fill="#0070CD"/>
<path d="M26.4637 50.3597C26.4545 50.3639 26.5143 50.5146 26.6341 50.7916C26.7677 51.091 26.945 51.4894 27.1645 51.9821C27.644 53.0254 28.306 54.4652 29.0891 56.1687L29.1134 56.2216L29.1732 56.222C29.5841 56.2235 30.0201 56.2254 30.4684 56.2269L30.4064 56.0538C30.1046 56.3007 29.7827 56.564 29.4544 56.833L29.3672 56.9042L29.4479 56.983C30.0247 57.548 30.6305 58.1412 31.2526 58.7504C33.5085 60.9389 35.5499 62.919 37.052 64.3763C37.786 65.0745 38.3868 65.6464 38.8259 66.0642C39.0249 66.2476 39.187 66.3971 39.3156 66.5155C39.429 66.6171 39.491 66.668 39.4963 66.6627C39.5013 66.6578 39.4492 66.5969 39.3449 66.4854C39.2235 66.3595 39.0706 66.2008 38.8822 66.0064C38.4545 65.5768 37.869 64.9889 37.154 64.2713C35.6629 62.803 33.6364 60.8073 31.3968 58.602C30.7735 57.9939 30.1666 57.4023 29.5887 56.8384L29.5822 56.9883C29.909 56.7178 30.2294 56.4529 30.53 56.2041L30.7404 56.0298L30.468 56.031C30.0198 56.0329 29.5837 56.0344 29.1728 56.0359L29.2565 56.0892C28.446 54.399 27.7604 52.9695 27.2642 51.9346C27.0253 51.451 26.832 51.0602 26.6866 50.7661C26.5504 50.4975 26.4728 50.3555 26.4637 50.3597Z" fill="#263238"/>
<path d="M39.6646 66.6638C39.6787 66.6657 39.7225 66.4221 39.789 65.9808C39.856 65.5048 39.9447 64.8731 40.0523 64.1084C40.2658 62.5263 40.5462 60.3388 40.8434 57.9215C40.9381 57.1419 41.0298 56.3862 41.117 55.6686L41.1276 55.5796L41.0412 55.5591C40.4987 55.4301 39.9789 55.3068 39.4865 55.19L39.4805 55.3718C40.0402 55.2714 40.5622 55.1778 41.0428 55.0918L41.1466 55.0732L41.1033 54.9792C40.6828 54.0668 40.3347 53.3103 40.0756 52.7476C39.9584 52.5044 39.8613 52.3039 39.7822 52.1399C39.7126 52.0018 39.6722 51.9303 39.6646 51.9337C39.657 51.9371 39.6829 52.0148 39.7384 52.1593C39.8065 52.3279 39.8903 52.5345 39.9918 52.7845C40.2346 53.3541 40.5611 54.1204 40.9553 55.0446L41.0158 54.932C40.5337 55.0111 40.0105 55.0968 39.4493 55.1888L39.0026 55.2619L39.4432 55.3707C39.9344 55.4921 40.453 55.6199 40.9948 55.7535L40.9191 55.6443C40.8297 56.3615 40.7357 57.1168 40.6387 57.896C40.3415 60.3133 40.0839 62.5038 39.9078 64.0905C39.8267 64.8583 39.7601 65.4926 39.7099 65.9709C39.6669 66.4153 39.6505 66.6619 39.6646 66.6638Z" fill="#263238"/>
<path d="M34.3727 96.031C34.3757 96.0272 34.3008 96.0298 34.1524 96.0386C33.9903 96.0493 33.7707 96.0637 33.4918 96.082C32.8945 96.1253 32.0425 96.187 30.9665 96.265C28.7638 96.4343 25.6449 96.674 21.9169 96.9605L21.8263 96.9674L21.8343 97.0583C21.9796 98.7603 22.1379 100.607 22.3046 102.558C22.389 103.534 22.4754 104.536 22.5641 105.559C22.6086 106.07 22.6535 106.587 22.6988 107.109C22.7186 107.365 22.7471 107.643 22.8224 107.907C22.9039 108.169 23.0237 108.421 23.1797 108.65C23.6789 109.371 24.4932 109.791 25.3082 109.936C26.1308 110.049 26.9291 110.065 27.7205 110.064C29.2988 110.045 30.8246 109.911 32.2431 109.568C32.5962 109.478 32.9436 109.375 33.2734 109.232C33.4401 109.165 33.5995 109.081 33.7532 108.986C33.8328 108.946 33.8994 108.869 33.9713 108.811C34.0386 108.747 34.085 108.668 34.1421 108.597C34.5177 107.982 34.6341 107.305 34.7338 106.669C34.9134 105.386 34.9191 104.183 34.9122 103.088C34.8776 100.898 34.7208 99.1332 34.604 97.916C34.5435 97.3072 34.4887 96.8357 34.4476 96.5161C34.4267 96.3658 34.41 96.2463 34.397 96.1531C34.3856 96.0736 34.375 96.0272 34.3727 96.031C34.3704 96.0348 34.37 96.0721 34.3765 96.1562C34.3841 96.2498 34.394 96.37 34.4066 96.5211C34.4347 96.8555 34.4739 97.3254 34.5245 97.9236C34.6166 99.1415 34.7509 100.907 34.7665 103.09C34.7642 104.18 34.749 105.38 34.5645 106.644C34.4655 107.268 34.3377 107.938 33.9914 108.496C33.8221 108.773 33.5223 108.928 33.2004 109.061C32.8834 109.197 32.5437 109.296 32.197 109.383C30.8021 109.715 29.284 109.846 27.7194 109.862C26.9394 109.862 26.1312 109.843 25.3443 109.733C24.5708 109.595 23.8087 109.197 23.3494 108.533C23.206 108.322 23.0956 108.091 23.0203 107.849C22.951 107.604 22.9248 107.356 22.9039 107.091C22.8582 106.57 22.8129 106.053 22.768 105.541C22.6778 104.519 22.5896 103.516 22.5036 102.541C22.3297 100.59 22.1653 98.7443 22.0139 97.0431L21.9313 97.1409C25.6328 96.819 28.73 96.5496 30.917 96.3594C31.9999 96.2604 32.8572 96.182 33.4584 96.1273C33.7437 96.0995 33.9682 96.0774 34.1341 96.061C34.2886 96.0447 34.3696 96.0348 34.3727 96.031Z" fill="#263238"/>
<g opacity="0.3">
<path d="M22.8354 107.649C23.7999 110.165 26.3252 110.317 29.0385 109.92C31.5936 109.546 34.0515 109.009 34.2399 108.278C34.1737 109.613 33.1901 110.639 31.9653 111.173C30.7401 111.707 29.3715 111.783 28.0363 111.725C26.6391 111.663 25.4326 111.724 24.2797 110.932C23.1268 110.14 22.8319 108.795 22.8354 107.649Z" fill="black"/>
</g>
<path d="M48.7356 96.8103C48.7322 96.8107 48.7261 96.7791 48.717 96.7171C48.7075 96.6432 48.6961 96.5527 48.682 96.4412C48.6542 96.1825 48.6158 95.8275 48.5675 95.3789C48.4754 94.4387 48.3449 93.1069 48.1843 91.4685C47.8704 88.1659 47.4522 83.6015 47.0101 78.5588C46.5683 73.5142 46.1875 68.9464 45.9356 65.638C45.8096 63.9836 45.716 62.6443 45.6632 61.7178C45.6331 61.2551 45.6217 60.8944 45.6137 60.6501C45.6114 60.5378 45.6091 60.4465 45.6076 60.3723C45.6072 60.3095 45.6087 60.2776 45.6122 60.2776C45.7058 61.3494 46.3404 68.6191 47.2072 78.5417C47.6425 83.5775 48.0367 88.1362 48.3236 91.456C48.4579 93.0967 48.5667 94.4303 48.6439 95.372C48.6767 95.8221 48.7025 96.1779 48.7216 96.4378C48.7276 96.55 48.7326 96.6413 48.7368 96.7155C48.7394 96.7779 48.7391 96.8103 48.7356 96.8103Z" fill="#263238"/>
<path d="M53.698 78.1698C53.698 78.1698 53.9354 78.9616 53.8563 79.793C53.7771 80.6244 53.7376 82.6714 51.5204 83.37C49.3033 84.0686 48.2269 83.4035 47.5424 82.4637L47.2072 78.3916L49.5803 76.8232L53.698 78.1698Z" fill="#E0E0E0"/>
<g opacity="0.3">
<path d="M35.1619 80.7893C35.1619 80.7893 29.4887 86.3944 25.0822 87.2021C20.6757 88.0099 19.102 86.4332 17.9293 82.4958L35.1619 80.7893Z" fill="black"/>
</g>
<path d="M17.182 55.1689C17.182 55.1689 13.5772 58.512 14.6034 66.4213C15.5569 73.7705 17.2497 84.0084 19.5064 85.1964C21.7631 86.3843 26.6327 85.7903 30.196 83.771C33.7593 81.7517 44.0924 76.2882 44.0924 76.2882L39.8164 68.6867L26.0387 74.0315C26.0387 74.0315 24.2573 61.8405 23.1881 59.7406" fill="#E0E0E0"/>
<path d="M23.1448 59.5739C23.1448 59.5739 23.184 59.6508 23.2521 59.8068C23.2852 59.8848 23.3297 59.9811 23.3753 60.0986C23.4145 60.2192 23.4594 60.3581 23.5104 60.5149C23.7128 61.1461 23.9544 62.0947 24.217 63.3264C24.7482 65.7897 25.3897 69.3834 26.0685 73.8542L25.9684 73.796C29.862 72.2794 34.5493 70.453 39.7385 68.4314L39.8153 68.4014L39.856 68.4733C41.2102 70.8769 42.6477 73.4281 44.137 76.0717L44.1876 76.1615L44.0963 76.211C41.2547 77.7417 38.2956 79.336 35.262 80.9706C33.799 81.7582 32.3535 82.5363 30.9285 83.3034C30.2174 83.6831 29.5093 84.0834 28.7723 84.4004C28.0337 84.7139 27.2796 84.9696 26.5201 85.1804C24.9978 85.5795 23.4465 85.8029 21.9249 85.7123C21.1673 85.6644 20.4109 85.5434 19.715 85.2485L19.457 85.1332C19.3714 85.0936 19.2915 85.0301 19.2089 84.9787C19.0583 84.857 18.9247 84.7211 18.8079 84.5739C18.5785 84.2782 18.3859 83.9624 18.2246 83.6363C17.5781 82.3305 17.1965 80.9672 16.843 79.6488C16.4968 78.3262 16.2224 77.0287 15.9747 75.7712C15.4869 73.2546 15.1251 70.8951 14.8226 68.7377C14.5201 66.5849 14.2545 64.617 14.3348 62.8789C14.3938 61.1438 14.7058 59.6641 15.1167 58.5143C15.5349 57.364 16.0379 56.5467 16.4226 56.0338C16.6132 55.7751 16.7806 55.5947 16.8944 55.476C17.0104 55.3588 17.0786 55.3086 17.0786 55.3086C17.0786 55.3086 17.02 55.3691 16.9096 55.4905C16.8012 55.6134 16.6398 55.7972 16.4557 56.0585C16.0843 56.5768 15.5958 57.3948 15.1924 58.5413C14.7964 59.6877 14.498 61.1587 14.4501 62.8831C14.3812 64.6098 14.6548 66.5632 14.9672 68.7172C15.2784 70.8712 15.6487 73.2276 16.1429 75.738C16.3933 76.9922 16.671 78.2862 17.0184 79.6027C17.3727 80.9135 17.7581 82.2723 18.3939 83.55C18.5518 83.8688 18.7398 84.174 18.957 84.4533C19.0674 84.5921 19.1911 84.7162 19.3254 84.8254C19.3992 84.8695 19.4635 84.9235 19.5445 84.9608L19.7907 85.0704C20.4551 85.3508 21.194 85.4699 21.9363 85.5156C23.4286 85.6027 24.9631 85.3813 26.4668 84.9852C27.2172 84.7763 27.9622 84.5229 28.6908 84.2132C29.4187 83.8989 30.1108 83.5077 30.8265 83.1246C32.2515 82.3571 33.6977 81.5782 35.1607 80.7902C38.1963 79.1568 41.1573 77.5633 44.0004 76.0329L43.9597 76.1718C42.4738 73.5262 41.0397 70.9727 39.689 68.5676L39.8062 68.6099C34.6113 70.6166 29.9187 72.4293 26.0209 73.9349L25.9345 73.9684L25.9212 73.8767C25.2614 69.4059 24.6424 65.8095 24.1363 63.3442C23.886 62.1111 23.6577 61.1613 23.4689 60.5282C23.4221 60.3711 23.3803 60.2314 23.3441 60.11C23.3 59.9951 23.2623 59.8973 23.2315 59.8163C23.1714 59.6573 23.1448 59.5739 23.1448 59.5739Z" fill="#263238"/>
<path d="M28.078 68.6924H34.9147V66.4155H28.078V68.6924Z" fill="white"/>
<path d="M29.4937 67.4161C29.4937 67.3613 30.4483 67.3171 31.6256 67.3171C32.8032 67.3171 33.7578 67.3617 33.7578 67.4161C33.7578 67.4705 32.8036 67.515 31.6256 67.515C30.4483 67.5154 29.4937 67.4709 29.4937 67.4161Z" fill="#263238"/>
<g opacity="0.3">
<path d="M39.3161 66.5156L29.2543 58.3514L29.4937 57.638H28.6163L27.1647 51.9819L29.257 56.0897L30.4685 56.0315L29.5892 56.8385L39.3161 66.5156Z" fill="black"/>
</g>
<path d="M26.8853 57.2093L27.2521 57.056C27.2441 57.0362 26.4245 55.0709 25.6175 52.9873C25.2975 52.1613 25.1822 51.4722 25.2747 50.9391C25.3546 50.478 25.7621 50.166 26.2381 50.166L26.5052 50.026L26.6425 49.7824C25.9386 49.6306 24.9958 50.2189 24.8828 50.871C24.7777 51.476 24.8999 52.2362 25.2461 53.1308C26.0558 55.2193 26.8773 57.1895 26.8853 57.2093Z" fill="#455A64"/>
<path d="M26.294 61.8042L26.7997 61.6075C26.385 60.5402 25.818 58.6484 26.0623 58.1161C26.2099 57.7942 26.6365 57.5123 27.1494 57.3977C27.754 57.2634 28.3323 57.3814 28.7364 57.7231C29.3155 58.2128 30.1903 59.9425 30.4787 60.568L30.9714 60.3412C30.9269 60.245 29.8764 57.9765 29.0869 57.3091C28.5523 56.8571 27.8031 56.6972 27.0314 56.8689C26.3484 57.021 25.7884 57.4126 25.5692 57.8901C25.159 58.7846 26.1007 61.3077 26.294 61.8042Z" fill="#455A64"/>
<path d="M31.7565 70.0563C32.3824 70.0563 32.9961 69.7215 33.5859 69.0568L33.3831 68.8768C32.7339 69.6085 32.0673 69.8992 31.4018 69.7436C28.6965 69.1074 26.6377 61.5911 26.6171 61.5154L26.3553 61.5858C26.4406 61.902 28.4785 69.3345 31.3398 70.0076C31.4791 70.0396 31.618 70.0563 31.7565 70.0563Z" fill="#263238"/>
<path d="M33.0657 69.3677C33.1799 69.48 33.3587 69.4921 33.4873 69.3966L34.0748 68.9602C34.2552 68.8415 34.3042 68.5991 34.1844 68.4195C34.0482 68.2156 33.7594 68.1874 33.5862 68.3609L33.0589 68.9107C32.9356 69.0394 32.9386 69.2429 33.0657 69.3677Z" fill="#263238"/>
<path d="M30.6078 70.3011C31.4434 70.3011 32.0628 70.0252 32.4532 69.4781C34.1167 67.1452 30.9811 60.6692 30.8468 60.3945L30.6032 60.5136C30.6356 60.5795 33.8028 67.1186 32.2325 69.3205C31.8235 69.8939 31.104 70.1222 30.0945 69.9967L30.061 70.2657C30.2524 70.2896 30.4347 70.3011 30.6078 70.3011Z" fill="#263238"/>
<path d="M30.657 70.1552C30.6455 70.315 30.5192 70.4425 30.3598 70.4558L29.6304 70.5163C29.4169 70.5463 29.2195 70.3968 29.1909 70.183C29.1582 69.9398 29.3564 69.7279 29.6011 69.7435L30.3602 69.8078C30.5375 69.823 30.6699 69.9779 30.657 70.1552Z" fill="#263238"/>
<path d="M43.6784 62.2121C44.7468 62.2121 45.6129 61.346 45.6129 60.2777C45.6129 59.2093 44.7468 58.3433 43.6784 58.3433C42.6101 58.3433 41.744 59.2093 41.744 60.2777C41.744 61.346 42.6101 62.2121 43.6784 62.2121Z" fill="#263238"/>
<path d="M43.6784 62.2121C44.7468 62.2121 45.6129 61.346 45.6129 60.2777C45.6129 59.2093 44.7468 58.3433 43.6784 58.3433C42.6101 58.3433 41.744 59.2093 41.744 60.2777C41.744 61.346 42.6101 62.2121 43.6784 62.2121Z" fill="#263238"/>
<path d="M42.2493 60.2776C42.2493 61.0668 42.8889 61.7064 43.678 61.7064C44.4672 61.7064 45.1068 61.0668 45.1068 60.2776C45.1068 59.4885 44.4668 58.8489 43.678 58.8489C42.8893 58.8485 42.2493 59.4885 42.2493 60.2776Z" fill="#E0E0E0"/>
<path d="M39.5775 51.8562C39.7574 52.1199 41.7786 56.3837 42.884 58.5335L43.2062 58.368C43.0434 58.0518 40.1064 51.9886 39.8769 51.6523L37.7385 49.8982L37.6632 50.3042L39.5775 51.8562Z" fill="#455A64"/>
<path d="M38.765 60.229C40.1648 61.6254 43.7084 65.2622 43.7084 65.2622L44.6573 64.6903L39.6622 59.36C39.4537 59.1374 39.1151 59.0978 38.8609 59.2668C38.5321 59.4848 38.4853 59.9501 38.765 60.229Z" fill="#263238"/>
<path d="M39.7729 68.5203L40.9639 65.1674C41.2249 64.4319 41.8999 63.8859 42.6803 63.8794C42.7412 63.879 42.8017 63.8817 42.861 63.8882C43.5737 63.9673 47.2162 64.2048 47.2162 64.2048L48.6259 65.7842C48.8671 66.0543 48.8736 66.4607 48.6415 66.7385L49.046 69.5891L48.2454 70.1306L48.3245 72.1228C48.3245 72.1228 47.6119 72.5981 47.2953 72.4394C46.9787 72.2811 46.9787 72.2811 46.9787 72.2811L46.5035 71.8059L45.1573 73.706L43.2959 74.7828L39.7729 68.5203Z" fill="#FFBF9D"/>
<path d="M48.6457 66.8902C48.6156 66.9062 48.4901 66.6345 48.1358 66.3358C47.9619 66.1909 47.7275 66.0253 47.4559 65.9256C47.1815 65.8343 46.8307 65.832 46.4708 65.7925C45.0295 65.657 43.8655 65.5014 43.8709 65.4443C43.8762 65.3876 45.0489 65.4512 46.4902 65.5862C46.8475 65.6273 47.1971 65.63 47.519 65.7457C47.8329 65.8743 48.0578 66.0577 48.2344 66.2278C48.5859 66.5763 48.6685 66.8856 48.6457 66.8902Z" fill="#FF9A6C"/>
<path d="M48.5676 69.5126C48.5299 69.5183 48.5147 69.2022 48.2746 68.7832C48.0429 68.3666 47.5498 67.8735 46.8664 67.6033C46.1796 67.3347 45.492 67.3008 45.0039 67.2906C44.5123 67.2833 44.2045 67.2955 44.2018 67.2643C44.1995 67.2384 44.5016 67.1749 45.0012 67.1444C45.4962 67.1178 46.2119 67.1262 46.9429 67.4112C47.6757 67.7007 48.1905 68.2513 48.404 68.7151C48.6262 69.1839 48.5862 69.5168 48.5676 69.5126Z" fill="#FF9A6C"/>
<path d="M48.2092 71.9577C48.1795 71.9718 48.0562 71.6697 48.0189 71.172C47.9919 70.9274 47.9668 70.6352 47.8401 70.3559C47.7225 70.0678 47.4512 69.8727 47.0924 69.7878C46.3782 69.5968 45.6892 69.5861 45.196 69.5146C44.7006 69.4545 44.402 69.3575 44.4092 69.3312C44.416 69.3019 44.717 69.3464 45.2094 69.3689C45.6987 69.4035 46.3942 69.3883 47.1468 69.5884C47.3344 69.6398 47.5235 69.7117 47.6803 69.8331C47.839 69.9537 47.9474 70.1184 48.0144 70.2794C48.1483 70.6055 48.1551 70.9163 48.1647 71.1621C48.165 71.6579 48.2324 71.9475 48.2092 71.9577Z" fill="#FF9A6C"/>
<path d="M50.1939 65.6628L34.489 81.8833L35.0936 82.4959L46.3452 81.2288L61.4858 66.8058L61.469 66.1114L50.1939 65.6628Z" fill="#455A64"/>
<g opacity="0.3">
<path d="M53.1369 73.2295C52.4189 72.5354 51.3756 72.2269 50.3803 72.3068C49.3845 72.3867 48.4394 72.8292 47.6605 73.4547C47.0346 73.9573 46.4897 74.6106 46.3071 75.3922C45.9886 76.7566 47.1103 78.6625 48.3461 79.3227C49.9138 78.064 51.4384 76.1334 53.0061 74.8743C53.2404 74.6864 53.4897 74.4741 53.5505 74.1799C53.6236 73.8265 53.3964 73.4802 53.1369 73.2295Z" fill="black"/>
</g>
<path d="M61.4242 66.7747C61.4242 66.7804 61.3534 66.7842 61.2172 66.7861C61.0642 66.7865 60.8656 66.7869 60.6175 66.7873C60.0738 66.7812 59.3144 66.772 58.3665 66.7614C56.4211 66.7241 53.7063 66.672 50.5383 66.6111L50.6106 66.5814C49.3945 67.8424 48.0639 69.2224 46.6751 70.6622C43.4946 73.936 40.6165 76.8985 38.5162 79.0601C37.4755 80.1167 36.629 80.977 36.0266 81.5885C35.7397 81.8735 35.5118 82.0998 35.3421 82.2688C35.1838 82.4225 35.0986 82.5013 35.0933 82.4963C35.088 82.4914 35.1637 82.4031 35.3121 82.2399C35.4749 82.0645 35.6937 81.8289 35.9684 81.5325C36.5589 80.91 37.3899 80.0341 38.4108 78.9585C40.4997 76.7859 43.3625 73.8085 46.526 70.5184C47.9178 69.0816 49.2514 67.7046 50.4705 66.4463L50.5002 66.4155L50.5425 66.4167C53.7097 66.5076 56.4237 66.5856 58.3688 66.6415C59.3163 66.6762 60.075 66.7036 60.6183 66.7233C60.866 66.7359 61.0642 66.7458 61.2172 66.7534C61.3538 66.7622 61.4242 66.7694 61.4242 66.7747Z" fill="#263238"/>
<path d="M51.594 71.5327C51.594 71.5327 53.1175 71.562 53.6133 71.8097C54.1087 72.0578 55.4743 73.512 55.4743 73.512C55.4743 73.512 55.4743 74.5017 55.0782 74.5413C55.0782 74.5413 55.1178 74.66 55.1573 75.2144C55.1969 75.7687 55.2761 76.0853 54.5238 76.5606C54.5238 76.5606 54.603 77.4711 54.326 77.7089C54.049 77.9463 53.732 78.1445 53.732 78.1445C53.732 78.1445 53.689 79.1468 52.3463 79.1342L51.088 79.6886C51.088 79.6886 48.2875 79.4257 48.5828 79.0973C48.8781 78.7689 49.5519 77.126 49.5519 77.126C49.5519 77.126 47.635 75.7292 47.6746 75.2939C47.7141 74.8582 47.8724 74.8187 47.8724 74.8187C47.8724 74.8187 47.7933 73.9873 48.4664 73.9081C48.4664 73.9081 48.9812 72.8789 49.4956 72.8393C50.0104 72.7998 53.4942 74.0668 53.4942 74.0668L52.1876 72.9584C52.1876 72.9584 50.881 72.7606 50.9205 72.3249C50.9605 71.8889 51.594 71.5327 51.594 71.5327Z" fill="#FFBF9D"/>
<path d="M51.3626 76.7485C51.3303 76.7991 50.5693 76.3588 49.5956 75.8905C48.6231 75.4186 47.8054 75.096 47.8248 75.0397C47.8412 74.9879 48.6996 75.2261 49.6858 75.7044C50.6724 76.1789 51.3931 76.7036 51.3626 76.7485Z" fill="#FF9A6C"/>
<path d="M53.1756 75.5362C53.1554 75.5899 52.1384 75.26 50.9037 74.7992C49.6686 74.3388 48.6839 73.9222 48.7037 73.8685C48.7234 73.8149 49.7409 74.1447 50.976 74.6055C52.2107 75.0659 53.1954 75.4826 53.1756 75.5362Z" fill="#FF9A6C"/>
<path d="M28.3908 40.4746C27.9236 38.7381 27.464 36.9889 27.3026 35.198C27.1413 33.407 27.2908 31.5563 28.0031 29.9049C28.1112 29.6546 29.008 27.9842 29.2774 28.0249C29.4703 28.0538 28.8897 29.6256 28.9791 29.7988C29.831 31.4516 29.9855 33.3948 29.7408 35.2383C29.4962 37.0814 29.0255 38.7267 28.3908 40.4746Z" fill="#263238"/>
<path d="M28.5669 33.6132C28.6525 29.104 31.3483 25.3953 35.8534 25.6057L36.2685 25.6495C40.4467 26.0901 43.5881 29.664 43.4849 33.8643C43.3891 37.7724 43.2327 42.0891 42.988 44.1654C42.4812 48.4635 38.1063 48.6792 38.1063 48.6792C38.0968 48.6788 37.1121 55.3085 37.1121 55.3085L27.922 48.9265L28.5669 33.6132Z" fill="#FFBF9D"/>
<path d="M38.1064 48.7123C38.1064 48.7123 35.3767 48.5856 32.6775 46.4651C32.6775 46.4651 33.5374 50.1452 37.8724 50.2103L38.1064 48.7123Z" fill="#FF9A6C"/>
<path d="M41.8443 37.464C41.8215 37.7897 41.527 38.0393 41.1864 38.0218C40.8463 38.0043 40.5887 37.7266 40.6115 37.4008C40.6343 37.0751 40.9289 36.8252 41.269 36.8427C41.6092 36.8602 41.8668 37.1383 41.8443 37.464Z" fill="#263238"/>
<path d="M42.3771 35.5536C42.2926 35.6255 41.863 35.2321 41.2017 35.164C40.542 35.0868 40.0207 35.3756 39.9575 35.2873C39.9259 35.2477 40.0192 35.1111 40.2463 34.9795C40.4704 34.8482 40.841 34.7367 41.2527 34.7816C41.6644 34.8273 41.9951 35.0156 42.1777 35.1918C42.3649 35.3695 42.4185 35.5217 42.3771 35.5536Z" fill="#263238"/>
<path d="M36.1872 37.1996C36.1644 37.5253 35.8699 37.7745 35.5293 37.757C35.1896 37.7395 34.9316 37.4621 34.9544 37.1361C34.9772 36.8104 35.2717 36.5608 35.6119 36.5783C35.9524 36.5958 36.21 36.8743 36.1872 37.1996Z" fill="#263238"/>
<path d="M35.8707 35.1385C35.7858 35.2104 35.3558 34.817 34.6949 34.7489C34.0352 34.6716 33.5139 34.9604 33.4507 34.8718C33.4195 34.8322 33.5116 34.6956 33.7399 34.5643C33.964 34.4327 34.3346 34.3212 34.7463 34.3665C35.158 34.4121 35.4886 34.6005 35.6717 34.7766C35.8577 34.9543 35.9118 35.1065 35.8707 35.1385Z" fill="#263238"/>
<path d="M37.7073 40.4707C37.708 40.4326 38.127 40.4048 38.802 40.39C38.9728 40.3904 39.136 40.3736 39.1767 40.2614C39.2293 40.1438 39.1779 39.954 39.1166 39.7489C39.001 39.3235 38.88 38.8775 38.7529 38.4103C38.2521 36.5063 37.9089 34.9478 37.9854 34.9284C38.0623 34.909 38.5307 36.4363 39.031 38.3407C39.1505 38.8098 39.2646 39.2569 39.3731 39.685C39.4168 39.8836 39.5036 40.113 39.391 40.3569C39.3324 40.4783 39.1984 40.5567 39.0873 40.5745C38.9755 40.5962 38.8803 40.5879 38.7962 40.5841C38.122 40.5491 37.7061 40.5083 37.7073 40.4707Z" fill="#263238"/>
<path d="M35.7128 40.7225C35.8212 40.7278 35.7466 41.4458 36.3075 42.02C36.8668 42.5957 37.6407 42.5957 37.6358 42.6969C37.6411 42.7429 37.4505 42.8183 37.1267 42.7932C36.8086 42.7707 36.3565 42.62 36.0137 42.2688C35.672 41.9169 35.5545 41.4827 35.5613 41.186C35.5651 40.8827 35.6641 40.7134 35.7128 40.7225Z" fill="#263238"/>
<path d="M36.1172 32.4508C36.0331 32.6239 35.3817 32.469 34.596 32.4804C33.8099 32.4763 33.1604 32.6376 33.0744 32.4656C33.0367 32.3838 33.1638 32.2259 33.4351 32.0786C33.7041 31.9314 34.1215 31.8081 34.5929 31.8054C35.064 31.8035 35.4829 31.9226 35.7534 32.0672C36.0255 32.2122 36.1541 32.3686 36.1172 32.4508Z" fill="#263238"/>
<path d="M42.3356 33.3266C42.2036 33.4647 41.7641 33.2604 41.2173 33.1953C40.6725 33.1113 40.195 33.1896 40.1048 33.0211C40.066 32.94 40.155 32.7973 40.3727 32.6763C40.5873 32.5557 40.9339 32.4751 41.309 32.5261C41.6842 32.5778 41.9958 32.7483 42.1705 32.9221C42.3474 33.0972 42.3946 33.2585 42.3356 33.3266Z" fill="#263238"/>
<path d="M28.5826 36.8371C28.5126 36.7975 25.7175 35.6507 25.5013 38.6029C25.2852 41.5552 28.2938 41.1633 28.3052 41.0788C28.3162 40.9947 28.5826 36.8371 28.5826 36.8371Z" fill="#FFBF9D"/>
<path d="M27.4853 39.8945C27.4731 39.8843 27.4313 39.9269 27.3415 39.9604C27.2539 39.9931 27.1059 40.0091 26.9564 39.9402C26.6528 39.8028 26.4264 39.2884 26.4511 38.7553C26.4633 38.4863 26.5382 38.2345 26.649 38.0297C26.7551 37.8205 26.9058 37.6797 27.0648 37.6633C27.2239 37.6386 27.3281 37.741 27.3582 37.8266C27.3917 37.9122 27.3685 37.9696 27.3841 37.9757C27.3917 37.9837 27.451 37.9308 27.4362 37.8072C27.4282 37.7474 27.3985 37.6755 27.3335 37.6135C27.2669 37.5507 27.1649 37.5138 27.0546 37.5176C26.8259 37.5165 26.6056 37.7109 26.4838 37.9358C26.3495 38.161 26.2589 38.4433 26.2453 38.7458C26.2205 39.3421 26.4846 39.9212 26.9024 40.0757C27.1059 40.1453 27.284 40.0951 27.3784 40.0319C27.4746 39.9653 27.4952 39.9006 27.4853 39.8945Z" fill="#FF9A6C"/>
<path d="M41.8889 28.8478C42.3839 28.615 41.0488 26.9743 39.9084 26.3655C38.1848 25.4454 35.505 24.775 33.838 25.1338C31.8309 25.5657 30.1301 26.4412 29.0252 28.1717C27.9198 29.9022 27.4134 31.9682 27.3392 34.0202C27.3164 34.6465 27.3392 35.3017 27.639 35.8519C28.0096 36.5315 28.7748 36.9938 28.682 37.8925C28.6481 38.2209 28.7208 38.5595 28.9308 38.8141C29.4342 39.424 30.1301 38.9263 30.4691 38.4039C31.1928 37.2887 31.3542 35.9121 31.4965 34.5902C31.5977 33.6508 31.6977 32.6908 31.4904 31.7689C31.3778 31.2674 31.1753 30.7872 31.0905 30.28C31.0056 29.7728 31.0574 29.2066 31.3945 28.8189C31.4493 28.7557 31.5383 28.6774 31.6502 28.5917C32.5337 27.9122 33.7193 27.7684 34.744 28.2067C36.3694 28.9022 39.1539 29.9642 39.932 29.4471C41.0518 28.7036 41.341 28.1903 41.341 28.1903L41.8889 28.8478Z" fill="#263238"/>
</svg>
